<svg width="223" height="36" viewBox="0 0 223 36" fill="none" xmlns="http://www.w3.org/2000/svg">
<g clip-path="url(#clip0_4803_2)">
<path d="M58.6951 21.5799L48.6444 8.14262C48.4933 7.94206 48.3455 7.74485 48.2045 7.55432C48.0635 7.36379 47.9157 7.16657 47.7646 6.96602H47.7411L47.815 17.6958V18.9493C47.815 19.3671 47.7982 19.7749 47.7646 20.176C48.0668 20.1593 48.3691 20.1426 48.6713 20.1259C48.9735 20.1092 49.2757 20.0925 49.578 20.0758V21.1788H44.9707V20.3532C45.4912 20.3532 45.8639 20.2396 46.0923 20.0156C46.3206 19.7916 46.465 19.5242 46.5322 19.2134C46.5994 18.9059 46.6329 18.6251 46.6329 18.3744L46.6598 6.31421V4.63621C46.3912 4.65293 46.1158 4.66964 45.8304 4.68635C45.5449 4.70306 45.2595 4.71978 44.9741 4.73649V3.63343H47.9694L57.4123 16.2184C57.6306 16.5025 57.8455 16.7866 58.0537 17.0708C58.2619 17.3549 58.4768 17.639 58.6951 17.9231H58.7186L58.7454 6.44123C58.7454 6.10696 58.7521 5.78607 58.7723 5.47521C58.7891 5.16769 58.8059 4.88691 58.8227 4.63621C58.5204 4.65293 58.2182 4.66964 57.916 4.68635C57.6138 4.70306 57.3115 4.71978 57.0093 4.73649V3.63343H61.6434V4.4624C61.0222 4.47911 60.5957 4.62284 60.3573 4.88691C60.1222 5.15432 59.9946 5.51532 59.9812 5.96657C59.9678 6.41783 59.9577 6.94262 59.9577 7.54763L59.9073 21.5866H58.6984L58.6951 21.5799Z" fill="white"/>
<path d="M69.6765 21.5799C68.518 21.5799 67.4736 21.3092 66.5401 20.7643C65.6099 20.2228 64.8745 19.454 64.3372 18.4579C63.7999 17.4652 63.5312 16.2886 63.5312 14.9348C63.5312 13.7649 63.7965 12.6719 64.3238 11.649C64.8543 10.6295 65.5965 9.80724 66.5535 9.17883C67.5105 8.55042 68.6187 8.23956 69.878 8.23956C70.5832 8.23956 71.2413 8.3532 71.8559 8.57716C72.467 8.80112 73.011 9.14541 73.4812 9.60669C73.9513 10.068 74.3207 10.6429 74.5893 11.3348C74.858 12.0301 74.9923 12.8423 74.9923 13.7783L66.127 13.9287C66.127 15.1989 66.2647 16.3153 66.5434 17.2747C66.8221 18.2373 67.2688 18.9794 67.89 19.5075C68.5112 20.0357 69.3071 20.2964 70.2809 20.2964C70.8014 20.2964 71.3354 20.2061 71.8794 20.0189C72.4234 19.8351 72.9338 19.5844 73.4039 19.2669C73.874 18.9493 74.2502 18.5983 74.5389 18.2139L75.1434 18.7153C74.6901 19.4173 74.1461 19.9788 73.5047 20.3933C72.8666 20.8111 72.2118 21.112 71.5402 21.2958C70.8686 21.4797 70.2474 21.5733 69.6765 21.5733V21.5799ZM66.2009 12.8791H72.6215C72.6215 12.2774 72.5342 11.6958 72.3562 11.1376C72.1782 10.5794 71.8894 10.1181 71.4865 9.76045C71.0835 9.40279 70.5563 9.22229 69.9015 9.22229C68.9276 9.22229 68.1183 9.50975 67.4702 10.088C66.8221 10.6663 66.399 11.5955 66.1975 12.8825L66.2009 12.8791Z" fill="white"/>
<path d="M82.3954 21.5799C81.5559 21.5799 80.8104 21.4663 80.1556 21.2423C79.5007 21.0184 78.9635 20.761 78.5437 20.4769L78.6444 21.3526H77.5867L77.4355 17.0407H78.2146C78.2482 17.7259 78.443 18.3409 78.7956 18.8825C79.1481 19.424 79.6015 19.8485 80.1556 20.1493C80.7096 20.4501 81.304 20.6006 81.9454 20.6006C82.382 20.6006 82.8084 20.5304 83.2315 20.3866C83.6513 20.2462 84.0039 20.0256 84.2893 19.7348C84.5748 19.444 84.7192 19.0696 84.7192 18.6184C84.7192 18.1671 84.5815 17.7627 84.3028 17.4518C84.024 17.1443 83.6614 16.8702 83.208 16.6362C82.7547 16.4022 82.2678 16.185 81.7473 15.9844C81.2436 15.7838 80.7399 15.5766 80.2362 15.356C79.7325 15.1387 79.2657 14.878 78.8392 14.5772C78.4127 14.2763 78.0702 13.9086 77.8184 13.4741C77.5665 13.0396 77.4423 12.5047 77.4423 11.8696C77.4423 11.5187 77.5094 11.1343 77.6437 10.7164C77.7781 10.2986 78.0031 9.90083 78.3254 9.52646C78.6444 9.15209 79.081 8.84122 79.6351 8.60056C80.1891 8.35989 80.8943 8.23621 81.7506 8.23621C82.204 8.23621 82.7077 8.31309 83.2618 8.46351C83.8158 8.61393 84.3531 8.89805 84.8736 9.31588L84.8233 8.36323H85.881V12.7487H85.0751C85.0415 12.1638 84.9072 11.5989 84.6721 11.0574C84.4371 10.5159 84.0946 10.0646 83.6379 9.70362C83.1845 9.34596 82.5969 9.16546 81.8749 9.16546C81.1025 9.16546 80.4981 9.35933 80.0615 9.74039C79.625 10.1248 79.4067 10.5694 79.4067 11.0708C79.4067 11.5721 79.5713 12.0201 79.897 12.361C80.2227 12.7053 80.6492 12.9994 81.1697 13.2501C81.6902 13.5008 82.2443 13.7448 82.8319 13.9788C83.47 14.2462 84.0912 14.5404 84.6957 14.8546C85.3001 15.1721 85.7937 15.5699 86.1799 16.0446C86.5661 16.5192 86.7609 17.1343 86.7609 17.8863C86.7609 18.722 86.5459 19.4173 86.1195 19.9688C85.693 20.5203 85.1456 20.9248 84.4807 21.1855C83.8158 21.4462 83.1241 21.5733 82.4021 21.5733L82.3954 21.5799Z" fill="white"/>
<path d="M94.0555 21.5799C93.216 21.5799 92.4705 21.4663 91.8157 21.2423C91.1609 21.0184 90.6236 20.761 90.2039 20.4769L90.3046 21.3526H89.2468L89.0957 17.0407H89.8748C89.9084 17.7259 90.1031 18.3409 90.4557 18.8825C90.8083 19.424 91.2616 19.8485 91.8157 20.1493C92.3698 20.4501 92.9642 20.6006 93.6056 20.6006C94.0421 20.6006 94.4686 20.5304 94.8917 20.3866C95.3115 20.2462 95.6641 20.0256 95.9495 19.7348C96.2349 19.444 96.3793 19.0696 96.3793 18.6184C96.3793 18.1671 96.2416 17.7627 95.9629 17.4518C95.6842 17.1443 95.3215 16.8702 94.8682 16.6362C94.4149 16.4022 93.9279 16.185 93.4074 15.9844C92.9037 15.7838 92.4 15.5766 91.8963 15.356C91.3926 15.1387 90.9258 14.878 90.4994 14.5772C90.0729 14.2763 89.7304 13.9086 89.4785 13.4741C89.2267 13.0396 89.1024 12.5047 89.1024 11.8696C89.1024 11.5187 89.1696 11.1343 89.3039 10.7164C89.4382 10.2986 89.6632 9.90083 89.9856 9.52646C90.3046 9.15209 90.7411 8.84122 91.2952 8.60056C91.8493 8.35989 92.5545 8.23621 93.4108 8.23621C93.8641 8.23621 94.3678 8.31309 94.9219 8.46351C95.476 8.61393 96.0133 8.89805 96.5338 9.31588L96.4834 8.36323H97.5412V12.7487H96.7353C96.7017 12.1638 96.5674 11.5989 96.3323 11.0574C96.0972 10.5159 95.7547 10.0646 95.298 9.70362C94.8447 9.34596 94.257 9.16546 93.535 9.16546C92.7627 9.16546 92.1582 9.35933 91.7217 9.74039C91.2852 10.1248 91.0669 10.5694 91.0669 11.0708C91.0669 11.5721 91.2314 12.0201 91.5572 12.361C91.8829 12.7053 92.3094 12.9994 92.8299 13.2501C93.3504 13.5008 93.9044 13.7448 94.4921 13.9788C95.1301 14.2462 95.7514 14.5404 96.3558 14.8546C96.9603 15.1721 97.4539 15.5699 97.8401 16.0446C98.2262 16.5192 98.421 17.1343 98.421 17.8863C98.421 18.722 98.2061 19.4173 97.7796 19.9688C97.3531 20.5203 96.8058 20.9248 96.1409 21.1855C95.476 21.4462 94.7842 21.5733 94.0623 21.5733L94.0555 21.5799Z" fill="white"/>
<path d="M105.869 21.5799C104.962 21.5799 104.203 21.4128 103.589 21.0786C102.974 20.7443 102.514 20.176 102.205 19.3738C101.893 18.5716 101.738 17.4852 101.738 16.1148V11.6524C101.738 11.385 101.742 11.1175 101.752 10.8501C101.758 10.5827 101.789 10.3086 101.839 10.0212C101.554 10.0379 101.265 10.0513 100.969 10.0579C100.674 10.068 100.385 10.078 100.1 10.0947V9.06518H100.882C101.604 9.06518 102.128 8.99499 102.457 8.85125C102.783 8.71086 103.041 8.55376 103.226 8.38663H103.955V16.0345C103.955 17.4719 104.159 18.5448 104.573 19.2568C104.982 19.9688 105.684 20.3131 106.675 20.2964C107.313 20.2797 107.921 20.0825 108.501 19.7081C109.079 19.3337 109.546 18.8858 109.898 18.3677V11.9265C109.898 11.5253 109.905 11.1777 109.925 10.8869C109.942 10.5961 109.976 10.3053 110.026 10.0212C109.724 10.0379 109.422 10.0513 109.119 10.0579C108.817 10.068 108.515 10.078 108.213 10.0947V9.06518H108.995C109.717 9.06518 110.241 8.99499 110.57 8.85125C110.899 8.71086 111.154 8.55376 111.339 8.38663H112.068L112.041 17.863C112.041 18.1304 112.031 18.5081 112.014 18.9928C111.997 19.4774 111.974 19.8886 111.94 20.2228C112.242 20.2061 112.545 20.1894 112.847 20.1727C113.149 20.156 113.451 20.1393 113.753 20.1226V21.1755H110.154C110.103 20.8914 110.066 20.624 110.039 20.3733C110.016 20.1226 109.992 19.8886 109.976 19.6713C109.455 20.1894 108.827 20.6373 108.088 21.0117C107.35 21.3861 106.611 21.5766 105.872 21.5766L105.869 21.5799Z" fill="white"/>
<path d="M115.591 21.1788V20.4267C116.111 20.4267 116.471 20.2964 116.675 20.039C116.877 19.7783 116.994 19.4206 117.028 18.9593C117.062 18.5014 117.078 17.9699 117.078 17.3682V11.6524C117.078 11.385 117.082 11.1175 117.092 10.8501C117.098 10.5827 117.129 10.3086 117.179 10.0212C116.877 10.0379 116.578 10.0546 116.286 10.0713C115.99 10.088 115.695 10.1047 115.393 10.1215V9.06852C116.131 9.06852 116.689 9.0351 117.068 8.96825C117.444 8.90139 117.726 8.81783 117.911 8.71755C118.096 8.61727 118.247 8.51031 118.364 8.38997H119.093C119.127 8.5571 119.147 8.75098 119.157 8.96825C119.167 9.18552 119.177 9.43621 119.194 9.72034C119.698 9.2858 120.275 8.93148 120.93 8.65404C121.585 8.3766 122.24 8.23956 122.894 8.23956C123.734 8.23956 124.439 8.38997 125.01 8.69081C125.581 8.99164 126.028 9.40279 126.347 9.92089C126.917 9.45293 127.576 9.05515 128.324 8.73092C129.07 8.40334 129.805 8.2429 130.527 8.2429C131.988 8.2429 133.063 8.68078 133.751 9.55989C134.439 10.4357 134.765 11.8696 134.732 13.8585L134.705 18.5215C134.705 18.8557 134.701 19.1532 134.691 19.4106C134.681 19.6713 134.654 19.9421 134.604 20.2262C134.873 20.2095 135.138 20.1961 135.396 20.1894C135.658 20.1827 135.92 20.1694 136.189 20.1526V21.1822H131.051V20.4301C131.572 20.4301 131.931 20.2997 132.136 20.0423C132.337 19.7816 132.455 19.424 132.488 18.9627C132.522 18.5047 132.539 17.9733 132.539 17.3716V13.8618C132.539 12.4245 132.307 11.3482 131.847 10.6262C131.384 9.90752 130.658 9.55655 129.668 9.57326C129.147 9.57326 128.627 9.69025 128.106 9.92424C127.586 10.1582 127.132 10.449 126.746 10.8C126.83 11.0674 126.894 11.3549 126.934 11.6657C126.974 11.9766 126.998 12.2975 126.998 12.6318C126.981 13.6011 126.971 14.5805 126.971 15.5666C126.971 16.5526 126.961 17.5387 126.944 18.5248C126.944 18.8591 126.941 19.1565 126.931 19.4139C126.921 19.6747 126.894 19.9454 126.844 20.2295C127.112 20.2128 127.377 20.1994 127.636 20.1928C127.895 20.1861 128.16 20.1727 128.429 20.156V21.1855H123.291V20.4334C123.811 20.4334 124.167 20.3031 124.362 20.0457C124.553 19.785 124.671 19.4273 124.715 18.966C124.755 18.5081 124.778 17.9766 124.778 17.3749L124.805 13.8652C124.822 12.4279 124.61 11.3415 124.174 10.6061C123.737 9.87075 123.022 9.51309 122.031 9.52646C121.511 9.52646 120.997 9.64011 120.493 9.86407C119.99 10.088 119.563 10.3788 119.207 10.7298C119.207 10.9304 119.211 11.1443 119.221 11.3682C119.227 11.5922 119.234 11.8329 119.234 12.0836V18.5248C119.234 18.8591 119.231 19.1565 119.221 19.4139C119.211 19.6747 119.184 19.9454 119.133 20.2295C119.402 20.2128 119.667 20.1994 119.926 20.1928C120.185 20.1861 120.45 20.1727 120.718 20.156V21.1855H115.581L115.591 21.1788Z" fill="white"/>
<path d="M145.008 20.3499C145.646 20.3164 146.082 20.1694 146.317 19.912C146.553 19.6513 146.683 19.2936 146.707 18.8323C146.734 18.3744 146.744 17.8496 146.744 17.2646V6.43788C146.744 6.10362 146.751 5.78273 146.771 5.47187C146.788 5.16435 146.804 4.88356 146.821 4.63287C146.519 4.64958 146.217 4.66629 145.914 4.68301C145.612 4.69972 145.31 4.71643 145.008 4.73315V3.63008L150.952 3.60334C152.463 3.60334 153.846 3.7805 155.109 4.13148C156.371 4.48245 157.456 5.02061 158.369 5.7493C159.283 6.47799 159.991 7.39721 160.485 8.50696C160.979 9.62006 161.227 10.927 161.227 12.4312C161.227 13.5844 161.026 14.6875 160.623 15.7404C160.22 16.7933 159.615 17.7259 158.809 18.5348C158.003 19.3471 156.999 19.9889 155.801 20.4635C154.598 20.9382 153.212 21.1788 151.633 21.1788H145.011V20.3532L145.008 20.3499ZM148.937 18.2206C148.937 18.6719 148.933 19.0563 148.923 19.3738C148.913 19.6914 148.893 19.9588 148.859 20.176C149.313 20.1928 149.729 20.2061 150.105 20.2128C150.481 20.2228 150.8 20.2262 151.062 20.2262H151.553C152.644 20.2262 153.631 20.0256 154.511 19.6245C155.391 19.2234 156.15 18.6685 156.778 17.9565C157.409 17.2479 157.893 16.4123 158.239 15.4496C158.581 14.4903 158.756 13.4474 158.756 12.3276C158.756 10.7398 158.467 9.36602 157.886 8.20279C157.308 7.0429 156.422 6.14039 155.23 5.49526C154.038 4.85348 152.516 4.52925 150.669 4.52925C150.048 4.52925 149.615 4.65627 149.373 4.90362C149.128 5.15432 148.997 5.50529 148.97 5.95655C148.943 6.4078 148.933 6.93259 148.933 7.5376V18.2173L148.937 18.2206Z" fill="white"/>
<path d="M169.739 21.5799C168.564 21.5799 167.496 21.3092 166.539 20.7643C165.582 20.2195 164.823 19.4708 164.259 18.5081C163.695 17.5454 163.416 16.449 163.416 15.2123C163.416 13.8919 163.695 12.7053 164.245 11.6524C164.8 10.5994 165.555 9.76713 166.512 9.15877C167.469 8.55042 168.544 8.2429 169.736 8.2429C170.928 8.2429 171.976 8.52368 172.933 9.08189C173.89 9.64345 174.652 10.3989 175.226 11.3515C175.797 12.3042 176.083 13.3905 176.083 14.6106C176.083 15.8975 175.8 17.0708 175.24 18.1337C174.676 19.1967 173.917 20.0357 172.96 20.654C172.003 21.2724 170.928 21.5833 169.736 21.5833L169.739 21.5799ZM169.941 20.5772C170.831 20.5772 171.536 20.3265 172.056 19.8251C172.577 19.3237 172.95 18.6719 173.178 17.8696C173.406 17.0674 173.517 16.2251 173.517 15.3359C173.517 14.5838 173.447 13.8451 173.302 13.1164C173.158 12.3877 172.936 11.7292 172.634 11.1343C172.332 10.5426 171.942 10.068 171.462 9.71699C170.985 9.36602 170.407 9.18886 169.736 9.18886C168.863 9.18886 168.148 9.43955 167.593 9.94095C167.039 10.4423 166.633 11.0942 166.371 11.8964C166.109 12.6986 165.982 13.561 165.982 14.4802C165.982 15.5164 166.123 16.4992 166.411 17.4251C166.697 18.351 167.133 19.1097 167.721 19.6947C168.309 20.2797 169.047 20.5705 169.937 20.5705L169.941 20.5772Z" fill="white"/>
<path d="M178.225 20.4267C178.746 20.4267 179.105 20.2964 179.31 20.039C179.512 19.7783 179.629 19.4206 179.663 18.9593C179.696 18.5014 179.713 17.9699 179.713 17.3682V11.6524C179.713 11.385 179.716 11.1175 179.727 10.8501C179.733 10.5827 179.763 10.3086 179.814 10.0212C179.512 10.0379 179.213 10.0513 178.921 10.0579C178.625 10.068 178.33 10.078 178.027 10.0947V9.06518H178.81C179.532 9.06518 180.032 8.99498 180.307 8.85125C180.586 8.71086 180.815 8.55376 180.999 8.38663H181.728C181.761 8.65404 181.785 8.98496 181.805 9.37604C181.822 9.77047 181.839 10.2652 181.856 10.8669C182.107 10.449 182.45 10.0412 182.89 9.64011C183.326 9.239 183.817 8.90473 184.364 8.63732C184.908 8.36991 185.486 8.23621 186.09 8.23621C186.56 8.23621 186.97 8.36323 187.322 8.61058C187.675 8.85794 187.853 9.26239 187.853 9.81393C187.853 9.94763 187.809 10.1114 187.725 10.3019C187.641 10.4958 187.507 10.663 187.322 10.8033C187.138 10.9471 186.893 11.0173 186.594 11.0173C186.224 11.0006 185.929 10.8535 185.714 10.5794C185.496 10.3019 185.412 9.98106 185.462 9.61337C185.042 9.59666 184.609 9.70696 184.166 9.94095C183.719 10.1749 183.306 10.4958 182.92 10.907C182.534 11.3181 182.191 11.7961 181.886 12.3476L181.913 18.5148C181.913 18.849 181.909 19.1465 181.899 19.4039C181.889 19.6646 181.862 19.9354 181.812 20.2195C182.08 20.2028 182.346 20.1894 182.604 20.1827C182.863 20.176 183.128 20.1627 183.397 20.146V21.1755H178.232V20.4234L178.225 20.4267Z" fill="white"/>
<path d="M189.132 21.1788V20.4267C189.652 20.4267 190.012 20.2964 190.216 20.039C190.418 19.7783 190.535 19.4206 190.569 18.9593C190.603 18.5014 190.619 17.9699 190.619 17.3682V11.6524C190.619 11.385 190.623 11.1175 190.633 10.8501C190.639 10.5827 190.67 10.3086 190.72 10.0212C190.418 10.0379 190.119 10.0546 189.827 10.0713C189.531 10.088 189.236 10.1047 188.934 10.1215V9.06852C189.672 9.06852 190.23 9.0351 190.609 8.96825C190.985 8.90139 191.267 8.81783 191.452 8.71755C191.637 8.61727 191.788 8.51031 191.905 8.38997H192.634C192.668 8.5571 192.688 8.75098 192.698 8.96825C192.708 9.18552 192.718 9.43621 192.735 9.72034C193.239 9.2858 193.816 8.93148 194.471 8.65404C195.126 8.3766 195.781 8.23956 196.435 8.23956C197.275 8.23956 197.98 8.38997 198.551 8.69081C199.122 8.99164 199.569 9.40279 199.888 9.92089C200.458 9.45293 201.117 9.05515 201.865 8.73092C202.611 8.40334 203.346 8.2429 204.068 8.2429C205.529 8.2429 206.604 8.68078 207.292 9.55989C207.98 10.4357 208.306 11.8696 208.273 13.8585L208.246 18.5215C208.246 18.8557 208.242 19.1532 208.232 19.4106C208.222 19.6713 208.195 19.9421 208.145 20.2262C208.414 20.2095 208.679 20.1961 208.938 20.1894C209.199 20.1827 209.461 20.1694 209.73 20.1526V21.1822H204.592V20.4301C205.113 20.4301 205.472 20.2997 205.677 20.0423C205.878 19.7816 205.996 19.424 206.029 18.9627C206.063 18.5047 206.08 17.9733 206.08 17.3716V13.8618C206.08 12.4245 205.848 11.3482 205.388 10.6262C204.925 9.90752 204.199 9.55655 203.209 9.57326C202.688 9.57326 202.168 9.69025 201.647 9.92424C201.127 10.1582 200.673 10.449 200.287 10.8C200.371 11.0674 200.435 11.3549 200.475 11.6657C200.516 11.9766 200.539 12.2975 200.539 12.6318C200.522 13.6011 200.512 14.5805 200.512 15.5666C200.512 16.5526 200.502 17.5387 200.485 18.5248C200.485 18.8591 200.482 19.1565 200.472 19.4139C200.462 19.6747 200.435 19.9454 200.385 20.2295C200.653 20.2128 200.918 20.1994 201.177 20.1928C201.436 20.1861 201.701 20.1727 201.97 20.156V21.1855H196.832V20.4334C197.352 20.4334 197.708 20.3031 197.903 20.0457C198.094 19.785 198.212 19.4273 198.256 18.966C198.296 18.5081 198.319 17.9766 198.319 17.3749L198.346 13.8652C198.363 12.4279 198.151 11.3415 197.715 10.6061C197.278 9.87075 196.563 9.51309 195.572 9.52646C195.052 9.52646 194.538 9.64011 194.034 9.86407C193.531 10.088 193.104 10.3788 192.748 10.7298C192.748 10.9304 192.752 11.1443 192.762 11.3682C192.768 11.5922 192.775 11.8329 192.775 12.0836V18.5248C192.775 18.8591 192.772 19.1565 192.762 19.4139C192.752 19.6747 192.725 19.9454 192.674 20.2295C192.943 20.2128 193.208 20.1994 193.467 20.1928C193.726 20.1861 193.991 20.1727 194.259 20.156V21.1855H189.122L189.132 21.1788Z" fill="white"/>
<path d="M219.303 21.1788C219.253 20.8947 219.219 20.644 219.203 20.4267C219.186 20.2095 219.162 19.9855 219.129 19.7482C218.558 20.3164 217.94 20.7643 217.278 21.0886C216.613 21.4162 215.915 21.5766 215.176 21.5766C213.9 21.5766 212.95 21.2891 212.332 20.7109C211.711 20.1359 211.398 19.4273 211.398 18.5916C211.398 17.8228 211.637 17.1577 212.117 16.5994C212.594 16.0412 213.215 15.5799 213.981 15.2223C214.743 14.8646 215.576 14.5939 216.472 14.4201C217.369 14.2462 218.239 14.166 219.078 14.1827V12.6284C219.078 12.0435 219.028 11.4919 218.927 10.9738C218.826 10.4557 218.608 10.0312 218.272 9.69359C217.937 9.35933 217.399 9.18552 216.66 9.1688C216.174 9.15209 215.673 9.24234 215.163 9.4429C214.649 9.64346 214.276 9.98775 214.041 10.4724C214.176 10.6061 214.263 10.7599 214.307 10.937C214.347 11.1142 214.37 11.2747 214.37 11.4251C214.37 11.6256 214.286 11.8563 214.118 12.1137C213.951 12.3744 213.655 12.4947 213.239 12.478C212.886 12.478 212.617 12.3577 212.433 12.1137C212.248 11.873 212.154 11.5822 212.154 11.2479C212.154 10.6797 212.369 10.1716 212.795 9.72034C213.222 9.26908 213.816 8.91142 214.572 8.64067C215.327 8.37326 216.184 8.23956 217.141 8.23956C218.551 8.23956 219.592 8.61059 220.264 9.35599C220.935 10.1014 221.261 11.2747 221.244 12.8791V14.7476C221.244 15.376 221.241 16.0011 221.231 16.6262C221.221 17.2546 221.217 17.883 221.217 18.5181C221.217 18.7855 221.207 19.0529 221.191 19.3203C221.174 19.5877 221.15 19.8886 221.117 20.2228C221.419 20.2061 221.718 20.1894 222.01 20.1727C222.305 20.156 222.601 20.1393 222.903 20.1226V21.1755H219.3L219.303 21.1788ZM219.075 15.0351C218.504 15.0518 217.903 15.122 217.275 15.249C216.647 15.376 216.066 15.5632 215.539 15.8139C215.012 16.0646 214.582 16.3955 214.253 16.8033C213.927 17.2145 213.769 17.7092 213.786 18.2942C213.82 18.9125 214.024 19.3772 214.404 19.6847C214.78 19.9955 215.23 20.1493 215.75 20.1493C216.439 20.1493 217.04 20.0189 217.55 19.7616C218.061 19.5042 218.571 19.1398 219.075 18.6719C219.058 18.488 219.048 18.2875 219.048 18.0702V17.3916C219.048 17.3081 219.051 17.0407 219.061 16.5894C219.068 16.1382 219.075 15.6201 219.075 15.0351Z" fill="white"/>
<path d="M49.0276 28.1348C49.0276 27.7772 48.9839 27.483 48.8933 27.249C48.8026 27.015 48.6716 26.8412 48.4937 26.7276C48.3157 26.6139 48.0941 26.5571 47.8254 26.5638H47.2377V31.2936C47.2377 31.4674 47.2378 31.6245 47.2277 31.7716C47.221 31.9187 47.2109 32.0323 47.1975 32.1159C47.3183 32.1092 47.4594 32.1025 47.6172 32.0958C47.775 32.0891 47.8959 32.0858 47.9765 32.0858V32.7175H45.3505V32.1894C45.5285 32.1827 45.6695 32.1493 45.7636 32.0925C45.8576 32.0357 45.9281 31.9387 45.9651 31.805C46.002 31.6713 46.0221 31.4841 46.0221 31.2401L46.0322 26.5671H45.4076C45.0282 26.5738 44.7394 26.7008 44.5412 26.9515C44.3431 27.1989 44.2424 27.5933 44.2424 28.1281H43.7051L43.7521 26.0123H49.5145L49.5716 28.1281H49.0242L49.0276 28.1348Z" fill="white"/>
<path d="M55.4725 30.3577C55.4725 30.0836 55.4322 29.8864 55.3516 29.7627C55.271 29.6423 55.1569 29.5688 55.0058 29.5421C54.8547 29.5153 54.6733 29.5086 54.4618 29.512L54.0689 29.532V31.3036C54.0689 31.4774 54.0689 31.6345 54.0588 31.7783C54.0521 31.922 54.042 32.0357 54.0286 32.1192L55.4994 32.1092C55.7244 32.1092 55.9292 32.0657 56.1139 31.9788C56.2986 31.8919 56.4497 31.7448 56.5673 31.5376C56.6814 31.3304 56.7419 31.0462 56.7419 30.6886H57.2724L57.2254 32.7175H52.185V32.1894C52.363 32.1827 52.504 32.1526 52.598 32.0992C52.6954 32.0457 52.7626 31.9487 52.7995 31.8117C52.8398 31.6747 52.8566 31.4841 52.8566 31.2435V27.4228C52.8566 27.2624 52.86 27.1086 52.87 26.9616C52.8801 26.8145 52.8868 26.7008 52.8935 26.6173C52.7827 26.624 52.6585 26.6273 52.5174 26.6306C52.3764 26.6306 52.2656 26.6373 52.1816 26.644V26.0123H56.9232L56.9803 27.8106H56.4497C56.4497 27.4462 56.3893 27.1755 56.2718 26.9916C56.1542 26.8111 55.9997 26.6875 55.8151 26.624C55.6304 26.5604 55.4356 26.5304 55.2375 26.537L54.7371 26.5471C54.5625 26.5538 54.4282 26.5805 54.3342 26.634C54.2368 26.6841 54.1696 26.7744 54.126 26.9081C54.0857 27.0384 54.0622 27.2323 54.0622 27.4864V28.9504L55.4087 28.9604L55.3617 28.1281H55.9964V30.351H55.4658L55.4725 30.3577Z" fill="white"/>
<path d="M59.6094 32.7209V32.176C59.7907 32.176 59.9318 32.1259 60.0426 32.0223C60.1534 31.9187 60.2407 31.785 60.3112 31.6145C60.3817 31.444 60.4556 31.2568 60.5328 31.0462L62.4469 25.8485H62.9674L65.0561 31.1432C65.0931 31.2535 65.1468 31.4039 65.2106 31.6045C65.2744 31.8017 65.3113 31.9755 65.3181 32.1226C65.4255 32.1159 65.533 32.1092 65.6371 32.1025C65.7378 32.0958 65.8285 32.0925 65.9057 32.0925V32.7242H63.4543V32.1961C63.6525 32.1961 63.7868 32.156 63.8573 32.0724C63.9278 31.9889 63.9581 31.8819 63.948 31.7482C63.9379 31.6145 63.9043 31.4774 63.8472 31.337L63.6055 30.6852L61.3724 30.7253L61.1608 31.3671C61.1205 31.4774 61.0768 31.5978 61.0265 31.7348C60.9761 31.8719 60.9224 31.9955 60.872 32.1025C60.9862 32.0958 61.1138 32.0891 61.2515 32.0825C61.3891 32.0758 61.5 32.0724 61.5839 32.0724V32.7242H59.6127L59.6094 32.7209ZM61.5806 30.107H63.3872L62.8667 28.6997C62.7895 28.4825 62.7189 28.2652 62.6518 28.0446C62.5846 27.824 62.5275 27.6234 62.4839 27.4362H62.4637C62.4234 27.5632 62.3798 27.7304 62.3227 27.9343C62.269 28.1382 62.1917 28.3721 62.0977 28.6329L61.5772 30.107H61.5806Z" fill="white"/>
<path d="M72.8909 28.1348C72.8909 27.7772 72.8472 27.483 72.7565 27.249C72.6659 27.015 72.5349 26.8412 72.3569 26.7276C72.179 26.6139 71.9573 26.5571 71.6887 26.5638H71.101V31.2936C71.101 31.4674 71.101 31.6245 71.091 31.7716C71.0842 31.9187 71.0742 32.0323 71.0607 32.1159C71.1816 32.1092 71.3227 32.1025 71.4805 32.0958C71.6383 32.0891 71.7592 32.0858 71.8398 32.0858V32.7175H69.2138V32.1894C69.3918 32.1827 69.5328 32.1493 69.6268 32.0925C69.7209 32.0357 69.7914 31.9387 69.8283 31.805C69.8653 31.6713 69.8854 31.4841 69.8854 31.2401L69.8955 26.5671H69.2709C68.8914 26.5738 68.6026 26.7008 68.4045 26.9515C68.2064 27.1989 68.1056 27.5933 68.1056 28.1281H67.5684L67.6154 26.0123H73.3778L73.4349 28.1281H72.8875L72.8909 28.1348Z" fill="white"/>
<path d="M76.0463 32.7209V32.1928C76.2243 32.1861 76.3653 32.156 76.4594 32.1025C76.5568 32.049 76.6239 31.9521 76.6608 31.815C76.7011 31.678 76.7179 31.4875 76.7179 31.2468V27.4262C76.7179 27.2657 76.7213 27.112 76.7314 26.9649C76.7414 26.8178 76.7482 26.7042 76.7549 26.6206C76.6441 26.6273 76.5198 26.6306 76.3788 26.634C76.2377 26.634 76.1269 26.6407 76.043 26.6474V26.0156C76.4661 26.0089 76.8926 26.0056 77.319 26.0022C77.7455 26.0022 78.1686 25.9989 78.5917 25.9989C79.176 25.9989 79.6697 26.0657 80.0793 26.1994C80.4857 26.3331 80.7946 26.5437 81.0028 26.8279C81.211 27.112 81.3118 27.483 81.305 27.9443C81.2983 28.205 81.2379 28.4624 81.1237 28.7097C81.0095 28.9604 80.8248 29.1777 80.5763 29.3716C80.3278 29.5621 79.992 29.7125 79.5756 29.8228C79.6965 29.8864 79.8141 29.9799 79.9249 30.1003C80.0357 30.2206 80.1398 30.3543 80.2372 30.5014L80.7577 31.2969C80.8853 31.4942 81.0062 31.6579 81.1136 31.7883C81.2211 31.9187 81.3353 32.0189 81.4494 32.0858C81.5636 32.1526 81.7013 32.1894 81.8625 32.1961V32.7242H80.4017C80.2674 32.6173 80.1398 32.4802 80.0223 32.3231C79.9047 32.1627 79.7805 31.9788 79.6529 31.7682L78.9611 30.6685C78.8772 30.5348 78.7999 30.4078 78.7261 30.2908C78.6522 30.1738 78.5716 30.0735 78.4809 29.99C78.3768 29.9967 78.2861 30 78.2022 30C78.1182 30 78.0276 30 77.9336 29.99V31.2936C77.9336 31.4741 77.9336 31.6345 77.9235 31.7816C77.9168 31.9287 77.9067 32.0423 77.8933 32.1259C77.9638 32.1192 78.0477 32.1159 78.1485 32.1125C78.2492 32.1125 78.3466 32.1059 78.4406 32.1025C78.538 32.1025 78.6152 32.0992 78.6723 32.0992V32.7309H76.0463V32.7209ZM78.4305 29.4084C78.7899 29.4017 79.0854 29.3482 79.3204 29.2446C79.5555 29.1409 79.7301 28.9838 79.851 28.7666C79.9685 28.5493 80.029 28.2719 80.029 27.9343C80.029 27.6468 79.9853 27.4128 79.898 27.2357C79.8107 27.0585 79.6965 26.9181 79.5521 26.8245C79.4077 26.7309 79.2499 26.6641 79.082 26.6273C78.9141 26.5905 78.7428 26.5738 78.5783 26.5738C78.4138 26.5738 78.2794 26.6006 78.1854 26.6507C78.088 26.7008 78.0242 26.7911 77.9873 26.9248C77.9537 27.0552 77.9336 27.2323 77.9336 27.4563V29.3816C78.0108 29.3883 78.0914 29.395 78.1753 29.4017C78.2593 29.4084 78.3466 29.4117 78.4339 29.4117L78.4305 29.4084Z" fill="white"/>
<path d="M87.5991 32.8747C86.9913 32.8747 86.4708 32.771 86.041 32.5671C85.6112 32.3632 85.2619 32.0891 84.9967 31.7482C84.7314 31.4072 84.5366 31.0295 84.4157 30.615C84.2948 30.2006 84.2344 29.7861 84.2344 29.3716C84.2344 28.9571 84.3015 28.5627 84.4359 28.1515C84.5702 27.7404 84.7784 27.3627 85.0571 27.0184C85.3358 26.6741 85.6884 26.3967 86.1115 26.1861C86.5346 25.9755 87.0316 25.8685 87.6025 25.8685C88.1734 25.8685 88.6905 25.9755 89.117 26.1861C89.5435 26.3967 89.8927 26.6774 90.1647 27.0251C90.4367 27.3727 90.6382 27.7504 90.7691 28.1582C90.9001 28.566 90.9673 28.9705 90.9673 29.3749C90.9673 29.7794 90.9001 30.1738 90.7658 30.5816C90.6315 30.9894 90.4233 31.3671 90.1445 31.7148C89.8658 32.0624 89.5132 32.3432 89.0901 32.5571C88.667 32.771 88.17 32.878 87.5991 32.878V32.8747ZM87.6764 32.283C88.0357 32.283 88.3379 32.1994 88.5864 32.0323C88.8349 31.8652 89.033 31.6479 89.1875 31.3805C89.342 31.1131 89.4561 30.8156 89.53 30.4947C89.6039 30.1738 89.6408 29.8529 89.6408 29.5421C89.6408 29.1142 89.5972 28.7131 89.5065 28.3421C89.4159 27.971 89.2849 27.6401 89.1069 27.3593C88.9289 27.0786 88.7073 26.8579 88.4387 26.6941C88.17 26.5304 87.8577 26.4535 87.5051 26.4602C87.1525 26.4669 86.8537 26.5538 86.6052 26.7242C86.3567 26.8947 86.1552 27.1153 86.0007 27.3861C85.8462 27.6568 85.7287 27.9543 85.6582 28.2819C85.5877 28.6061 85.5507 28.927 85.5507 29.2379C85.5507 29.5487 85.591 29.893 85.6649 30.244C85.7421 30.595 85.863 30.9259 86.0309 31.2401C86.1988 31.5543 86.4171 31.805 86.6891 31.9955C86.9611 32.1861 87.2902 32.283 87.6764 32.283Z" fill="white"/>
<path d="M103.287 28.1649C103.21 27.61 103.022 27.1855 102.72 26.8981C102.417 26.6072 102.028 26.4635 101.544 26.4635C101.205 26.4635 100.903 26.5404 100.634 26.6875C100.369 26.8379 100.144 27.0418 99.9625 27.2992C99.7812 27.5565 99.6402 27.8574 99.5428 28.1983C99.4454 28.5393 99.3984 28.907 99.3984 29.2947C99.3984 29.863 99.4891 30.3643 99.6738 30.7989C99.8551 31.2334 100.114 31.5744 100.443 31.8251C100.772 32.0724 101.158 32.1994 101.601 32.1994C102.011 32.1994 102.417 32.0992 102.817 31.8986C103.216 31.6981 103.549 31.4106 103.811 31.0429L104.204 31.3972C103.902 31.805 103.583 32.1159 103.243 32.3298C102.904 32.5437 102.572 32.6875 102.249 32.7643C101.927 32.8412 101.631 32.878 101.37 32.878C100.876 32.878 100.429 32.7911 100.026 32.6139C99.6267 32.4368 99.2809 32.1961 98.9887 31.8852C98.6966 31.5744 98.4716 31.2134 98.3171 30.8022C98.1593 30.3911 98.082 29.9465 98.082 29.4652C98.082 29.024 98.1526 28.5894 98.2902 28.1616C98.4279 27.7337 98.6361 27.3493 98.9148 27.0017C99.1936 26.654 99.5462 26.3799 99.9693 26.1727C100.392 25.9655 100.883 25.8618 101.44 25.8618C101.722 25.8618 102.018 25.9053 102.327 25.9922C102.636 26.0791 102.924 26.2028 103.193 26.3699L103.153 25.9287H103.818V28.1582H103.287V28.1649Z" fill="white"/>
<path d="M109.345 26.5471C109.17 26.5538 109.036 26.5838 108.935 26.6373C108.834 26.6908 108.767 26.7844 108.727 26.9181C108.69 27.0518 108.67 27.2423 108.67 27.493V31.2936C108.67 31.4674 108.67 31.6245 108.66 31.7716C108.653 31.9187 108.643 32.0323 108.63 32.1159C108.737 32.1092 108.865 32.1025 109.006 32.0958C109.147 32.0891 109.258 32.0858 109.341 32.0858V32.7175H106.783V32.1894C106.961 32.1827 107.102 32.1526 107.196 32.0992C107.293 32.0457 107.36 31.9487 107.397 31.8117C107.437 31.6747 107.454 31.4841 107.454 31.2435V27.4228C107.454 27.2624 107.458 27.1086 107.468 26.9616C107.478 26.8145 107.484 26.7008 107.491 26.6173C107.38 26.624 107.256 26.6273 107.115 26.6306C106.974 26.6306 106.863 26.6373 106.779 26.644V26.0123H109.338V26.5404L109.345 26.5471Z" fill="white"/>
<path d="M114.859 32.7877L112.656 27.6669C112.566 27.4496 112.492 27.249 112.435 27.0685C112.378 26.888 112.344 26.7376 112.337 26.624C112.233 26.6306 112.139 26.634 112.052 26.6373C111.964 26.6407 111.884 26.644 111.807 26.6507V26.0189H114.443V26.5471C114.174 26.5538 113.986 26.6206 113.885 26.7543C113.781 26.8847 113.788 27.0986 113.905 27.3928C114.06 27.7571 114.208 28.1181 114.352 28.4758C114.496 28.8334 114.644 29.2011 114.799 29.5755C114.926 29.8763 115.04 30.1471 115.141 30.3877C115.239 30.6318 115.336 30.8691 115.423 31.1064H115.443C115.514 30.9025 115.588 30.6886 115.665 30.4613C115.742 30.234 115.823 30.0033 115.907 29.766C116.028 29.4418 116.139 29.1409 116.233 28.8669C116.33 28.5928 116.421 28.3387 116.511 28.1047C116.602 27.8708 116.683 27.6501 116.753 27.4396C116.79 27.3125 116.844 27.1655 116.908 27.005C116.971 26.8412 117.038 26.7175 117.109 26.6273C116.998 26.634 116.871 26.6373 116.723 26.6407C116.575 26.6407 116.458 26.6474 116.367 26.654V26.0223H118.462V26.5504C118.217 26.5571 118.019 26.634 117.861 26.7811C117.703 26.9281 117.559 27.1822 117.425 27.5465C117.347 27.7437 117.27 27.9476 117.193 28.1549C117.116 28.3621 117.035 28.5827 116.951 28.81C116.867 29.0373 116.773 29.288 116.672 29.5554C116.568 29.8228 116.461 30.117 116.34 30.4379C116.219 30.7588 116.088 31.1097 115.947 31.5008C115.806 31.8919 115.645 32.3198 115.47 32.7944H114.856L114.859 32.7877Z" fill="white"/>
<path d="M123.388 26.5471C123.213 26.5538 123.079 26.5838 122.978 26.6373C122.877 26.6908 122.81 26.7844 122.77 26.9181C122.733 27.0518 122.713 27.2423 122.713 27.493V31.2936C122.713 31.4674 122.713 31.6245 122.703 31.7716C122.696 31.9187 122.686 32.0323 122.673 32.1159C122.78 32.1092 122.908 32.1025 123.049 32.0958C123.19 32.0891 123.301 32.0858 123.384 32.0858V32.7175H120.826V32.1894C121.004 32.1827 121.145 32.1526 121.239 32.0992C121.336 32.0457 121.403 31.9487 121.44 31.8117C121.48 31.6747 121.497 31.4841 121.497 31.2435V27.4228C121.497 27.2624 121.501 27.1086 121.511 26.9616C121.521 26.8145 121.527 26.7008 121.534 26.6173C121.423 26.624 121.299 26.6273 121.158 26.6306C121.017 26.6306 120.906 26.6373 120.822 26.644V26.0123H123.381V26.5404L123.388 26.5471Z" fill="white"/>
<path d="M131.287 28.1649C131.21 27.61 131.022 27.1855 130.72 26.8981C130.417 26.6072 130.028 26.4635 129.544 26.4635C129.205 26.4635 128.903 26.5404 128.634 26.6875C128.369 26.8379 128.144 27.0418 127.963 27.2992C127.781 27.5565 127.64 27.8574 127.543 28.1983C127.445 28.5393 127.398 28.907 127.398 29.2947C127.398 29.863 127.489 30.3643 127.674 30.7989C127.855 31.2334 128.114 31.5744 128.443 31.8251C128.772 32.0724 129.158 32.1994 129.601 32.1994C130.011 32.1994 130.417 32.0992 130.817 31.8986C131.216 31.6981 131.549 31.4106 131.811 31.0429L132.204 31.3972C131.902 31.805 131.583 32.1159 131.243 32.3298C130.904 32.5437 130.572 32.6875 130.249 32.7643C129.927 32.8412 129.631 32.878 129.37 32.878C128.876 32.878 128.429 32.7911 128.026 32.6139C127.627 32.4368 127.281 32.1961 126.989 31.8852C126.697 31.5744 126.472 31.2134 126.317 30.8022C126.159 30.3911 126.082 29.9465 126.082 29.4652C126.082 29.024 126.153 28.5894 126.29 28.1616C126.428 27.7337 126.636 27.3493 126.915 27.0017C127.194 26.654 127.546 26.3799 127.969 26.1727C128.392 25.9655 128.883 25.8618 129.44 25.8618C129.722 25.8618 130.018 25.9053 130.327 25.9922C130.636 26.0791 130.924 26.2028 131.193 26.3699L131.153 25.9287H131.818V28.1582H131.287V28.1649Z" fill="white"/>
<path d="M138.029 32.8747C137.421 32.8747 136.901 32.771 136.471 32.5671C136.041 32.3632 135.692 32.0891 135.426 31.7482C135.161 31.4072 134.966 31.0295 134.845 30.615C134.725 30.2006 134.664 29.7861 134.664 29.3716C134.664 28.9571 134.731 28.5627 134.866 28.1515C135 27.7404 135.208 27.3627 135.487 27.0184C135.766 26.6741 136.118 26.3967 136.541 26.1861C136.964 25.9755 137.461 25.8685 138.032 25.8685C138.603 25.8685 139.12 25.9755 139.547 26.1861C139.973 26.3967 140.322 26.6774 140.594 27.0251C140.866 27.3727 141.068 27.7504 141.199 28.1582C141.33 28.566 141.397 28.9705 141.397 29.3749C141.397 29.7794 141.33 30.1738 141.195 30.5816C141.061 30.9894 140.853 31.3671 140.574 31.7148C140.296 32.0624 139.943 32.3432 139.52 32.5571C139.097 32.771 138.6 32.878 138.029 32.878V32.8747ZM138.106 32.283C138.465 32.283 138.768 32.1994 139.016 32.0323C139.265 31.8652 139.463 31.6479 139.617 31.3805C139.772 31.1131 139.886 30.8156 139.96 30.4947C140.034 30.1738 140.071 29.8529 140.071 29.5421C140.071 29.1142 140.027 28.7131 139.936 28.3421C139.846 27.971 139.715 27.6401 139.537 27.3593C139.359 27.0786 139.137 26.8579 138.868 26.6941C138.6 26.5304 138.287 26.4535 137.935 26.4602C137.582 26.4669 137.283 26.5538 137.035 26.7242C136.786 26.8947 136.585 27.1153 136.43 27.3861C136.276 27.6568 136.158 27.9543 136.088 28.2819C136.017 28.6061 135.98 28.927 135.98 29.2379C135.98 29.5487 136.021 29.893 136.095 30.244C136.172 30.595 136.293 30.9259 136.461 31.2401C136.629 31.5543 136.847 31.805 137.119 31.9955C137.391 32.1861 137.72 32.283 138.106 32.283Z" fill="white"/>
<path d="M148.638 32.1961C148.816 32.1894 148.957 32.1593 149.051 32.1059C149.149 32.0524 149.216 31.9554 149.253 31.8184C149.293 31.6813 149.31 31.4908 149.31 31.2501V27.4295C149.31 27.2691 149.313 27.1153 149.323 26.9682C149.333 26.8212 149.34 26.7075 149.347 26.624C149.236 26.6306 149.112 26.634 148.971 26.6373C148.83 26.6373 148.719 26.644 148.635 26.6507V26.0189L151.251 26.0089C151.865 26.0089 152.409 26.0925 152.883 26.263C153.356 26.4334 153.746 26.6708 154.061 26.9749C154.377 27.2825 154.615 27.6368 154.777 28.0379C154.941 28.439 155.022 28.8702 155.022 29.3315C155.022 29.7326 154.951 30.137 154.807 30.5382C154.662 30.9393 154.441 31.307 154.142 31.6345C153.843 31.9621 153.46 32.2262 152.987 32.4234C152.517 32.6206 151.956 32.7209 151.308 32.7209H148.635V32.1928L148.638 32.1961ZM150.525 31.2969C150.525 31.4708 150.525 31.6279 150.515 31.7749C150.509 31.922 150.498 32.0357 150.485 32.1192C150.586 32.1192 150.7 32.1192 150.821 32.1226C150.942 32.1226 151.063 32.1292 151.177 32.1326C151.291 32.1326 151.378 32.1359 151.435 32.1359C151.808 32.1359 152.134 32.0624 152.416 31.9153C152.698 31.7682 152.933 31.571 153.124 31.3203C153.313 31.0696 153.457 30.7855 153.551 30.4646C153.648 30.1437 153.695 29.8028 153.695 29.4451C153.695 28.8134 153.598 28.2852 153.403 27.8607C153.208 27.4362 152.926 27.1153 152.56 26.8947C152.194 26.6741 151.744 26.5604 151.204 26.5538C151.022 26.5471 150.881 26.5738 150.781 26.6306C150.68 26.6875 150.609 26.7844 150.572 26.9181C150.539 27.0518 150.519 27.239 150.519 27.483V31.2936L150.525 31.2969Z" fill="white"/>
<path d="M160.249 26.5471C160.075 26.5538 159.94 26.5838 159.839 26.6373C159.739 26.6908 159.672 26.7844 159.631 26.9181C159.594 27.0518 159.574 27.2423 159.574 27.493V31.2936C159.574 31.4674 159.574 31.6245 159.564 31.7716C159.557 31.9187 159.547 32.0323 159.534 32.1159C159.641 32.1092 159.769 32.1025 159.91 32.0958C160.051 32.0891 160.162 32.0858 160.246 32.0858V32.7175H157.687V32.1894C157.865 32.1827 158.006 32.1526 158.1 32.0992C158.197 32.0457 158.265 31.9487 158.301 31.8117C158.342 31.6747 158.359 31.4841 158.359 31.2435V27.4228C158.359 27.2624 158.362 27.1086 158.372 26.9616C158.382 26.8145 158.389 26.7008 158.395 26.6173C158.285 26.624 158.16 26.6273 158.019 26.6306C157.878 26.6306 157.768 26.6373 157.684 26.644V26.0123H160.242V26.5404L160.249 26.5471Z" fill="white"/>
<path d="M170.869 32.8747C170.261 32.8747 169.74 32.771 169.311 32.5671C168.881 32.3632 168.531 32.0891 168.266 31.7482C168.001 31.4072 167.806 31.0295 167.685 30.615C167.564 30.2006 167.504 29.7861 167.504 29.3716C167.504 28.9571 167.571 28.5627 167.705 28.1515C167.84 27.7404 168.048 27.3627 168.327 27.0184C168.605 26.6741 168.958 26.3967 169.381 26.1861C169.804 25.9755 170.301 25.8685 170.872 25.8685C171.443 25.8685 171.96 25.9755 172.387 26.1861C172.813 26.3967 173.162 26.6774 173.434 27.0251C173.706 27.3727 173.908 27.7504 174.039 28.1582C174.17 28.566 174.237 28.9705 174.237 29.3749C174.237 29.7794 174.17 30.1738 174.035 30.5816C173.901 30.9894 173.693 31.3671 173.414 31.7148C173.135 32.0624 172.783 32.3432 172.36 32.5571C171.937 32.771 171.44 32.878 170.869 32.878V32.8747ZM170.946 32.283C171.305 32.283 171.607 32.1994 171.856 32.0323C172.104 31.8652 172.303 31.6479 172.457 31.3805C172.612 31.1131 172.726 30.8156 172.8 30.4947C172.873 30.1738 172.91 29.8529 172.91 29.5421C172.91 29.1142 172.867 28.7131 172.776 28.3421C172.685 27.971 172.554 27.6401 172.376 27.3593C172.198 27.0786 171.977 26.8579 171.708 26.6941C171.44 26.5304 171.127 26.4535 170.775 26.4602C170.422 26.4669 170.123 26.5538 169.875 26.7242C169.626 26.8947 169.425 27.1153 169.27 27.3861C169.116 27.6568 168.998 27.9543 168.928 28.2819C168.857 28.6061 168.82 28.927 168.82 29.2379C168.82 29.5487 168.861 29.893 168.934 30.244C169.012 30.595 169.133 30.9259 169.3 31.2401C169.468 31.5543 169.687 31.805 169.959 31.9955C170.231 32.1861 170.56 32.283 170.946 32.283Z" fill="white"/>
<path d="M176.919 32.7209V32.1928C177.097 32.1861 177.238 32.156 177.332 32.1025C177.429 32.049 177.496 31.9521 177.533 31.815C177.574 31.678 177.59 31.4875 177.59 31.2468V27.4262C177.59 27.2657 177.594 27.112 177.604 26.9649C177.614 26.8178 177.621 26.7042 177.627 26.6206C177.517 26.6273 177.392 26.6306 177.251 26.634C177.11 26.634 176.999 26.6407 176.915 26.6474V26.0156H179.474V26.5437C179.3 26.5504 179.165 26.5805 179.065 26.634C178.964 26.6875 178.897 26.7811 178.856 26.9148C178.819 27.0485 178.799 27.239 178.799 27.4897V31.3003C178.799 31.4741 178.799 31.6312 178.789 31.7749C178.783 31.9187 178.772 32.0323 178.759 32.1159L180.22 32.1059C180.606 32.1059 180.901 31.9755 181.113 31.7181C181.325 31.4607 181.432 31.063 181.432 30.5248H181.969L181.912 32.7176H176.912L176.919 32.7209Z" fill="white"/>
<path d="M187.853 30.3577C187.853 30.0836 187.813 29.8864 187.733 29.7627C187.652 29.6423 187.538 29.5688 187.387 29.5421C187.236 29.5153 187.054 29.5086 186.843 29.512L186.45 29.532V31.3036C186.45 31.4774 186.45 31.6345 186.44 31.7783C186.433 31.922 186.423 32.0357 186.409 32.1192L187.88 32.1092C188.105 32.1092 188.31 32.0657 188.495 31.9788C188.679 31.8919 188.831 31.7448 188.948 31.5376C189.062 31.3304 189.123 31.0462 189.123 30.6886H189.653L189.606 32.7175H184.566V32.1894C184.744 32.1827 184.885 32.1526 184.979 32.0992C185.076 32.0457 185.143 31.9487 185.18 31.8117C185.221 31.6747 185.237 31.4841 185.237 31.2435V27.4228C185.237 27.2624 185.241 27.1086 185.251 26.9616C185.261 26.8145 185.268 26.7008 185.274 26.6173C185.164 26.624 185.039 26.6273 184.898 26.6306C184.757 26.6306 184.646 26.6373 184.562 26.644V26.0123H189.304L189.361 27.8106H188.831C188.831 27.4462 188.77 27.1755 188.653 26.9916C188.535 26.8111 188.381 26.6875 188.196 26.624C188.011 26.5604 187.816 26.5304 187.618 26.537L187.118 26.5471C186.943 26.5538 186.809 26.5805 186.715 26.634C186.618 26.6841 186.55 26.7744 186.507 26.9081C186.467 27.0384 186.443 27.2323 186.443 27.4864V28.9504L187.79 28.9604L187.743 28.1281H188.377V30.351H187.847L187.853 30.3577Z" fill="white"/>
<path d="M195.637 32.8747C194.958 32.8747 194.374 32.7309 193.887 32.4401C193.4 32.1493 193.024 31.7482 192.762 31.2334C192.5 30.7187 192.369 30.137 192.369 29.4852C192.369 29.044 192.44 28.6095 192.577 28.1783C192.715 27.7471 192.923 27.3593 193.199 27.0117C193.474 26.6641 193.823 26.3866 194.243 26.1794C194.663 25.9721 195.153 25.8685 195.71 25.8685C195.902 25.8685 196.11 25.8886 196.335 25.9253C196.56 25.9621 196.782 26.0189 197.003 26.0925C197.225 26.166 197.423 26.2529 197.594 26.3565L197.557 25.9354H198.229V28.1582H197.698C197.648 27.7805 197.534 27.4696 197.363 27.2189C197.188 26.9682 196.97 26.7811 196.704 26.6474C196.439 26.517 196.14 26.4501 195.815 26.4501C195.489 26.4501 195.18 26.527 194.915 26.6808C194.649 26.8345 194.424 27.0418 194.243 27.3025C194.062 27.5632 193.921 27.8641 193.823 28.2017C193.726 28.5393 193.679 28.9003 193.679 29.2847C193.679 29.8462 193.766 30.3476 193.944 30.7922C194.119 31.2368 194.371 31.5844 194.7 31.8351C195.025 32.0858 195.422 32.2128 195.882 32.2128C196.023 32.2128 196.181 32.2028 196.352 32.1794C196.526 32.156 196.698 32.1192 196.872 32.0691C197.047 32.0189 197.198 31.9588 197.336 31.8886V30.9025C197.336 30.7354 197.336 30.5749 197.346 30.4145C197.352 30.254 197.359 30.1237 197.366 30.0234C197.255 30.0301 197.131 30.0334 196.99 30.0368C196.849 30.0401 196.738 30.0435 196.654 30.0501V29.4184H199.089V29.9465C198.954 29.9532 198.843 29.9766 198.763 30.0167C198.682 30.0568 198.612 30.1203 198.561 30.1972C198.511 30.2774 198.474 30.3744 198.457 30.488C198.437 30.6017 198.427 30.7354 198.427 30.8791V32.3833H198.185C198.031 32.3833 197.863 32.4067 197.675 32.4535C197.49 32.5003 197.285 32.5604 197.07 32.6306C196.872 32.6942 196.651 32.751 196.406 32.7978C196.16 32.8446 195.909 32.868 195.647 32.868L195.637 32.8747Z" fill="white"/>
<path d="M204.791 32.8747C204.112 32.8747 203.528 32.7309 203.041 32.4401C202.554 32.1493 202.178 31.7482 201.916 31.2334C201.654 30.7187 201.523 30.137 201.523 29.4852C201.523 29.044 201.594 28.6095 201.732 28.1783C201.869 27.7471 202.078 27.3593 202.353 27.0117C202.628 26.6641 202.977 26.3866 203.397 26.1794C203.817 25.9721 204.307 25.8685 204.865 25.8685C205.056 25.8685 205.264 25.8886 205.489 25.9253C205.714 25.9621 205.936 26.0189 206.158 26.0925C206.379 26.166 206.577 26.2529 206.749 26.3565L206.712 25.9354H207.383V28.1582H206.853C206.802 27.7805 206.688 27.4696 206.517 27.2189C206.342 26.9682 206.124 26.7811 205.859 26.6474C205.593 26.517 205.295 26.4501 204.969 26.4501C204.643 26.4501 204.334 26.527 204.069 26.6808C203.804 26.8345 203.579 27.0418 203.397 27.3025C203.216 27.5632 203.075 27.8641 202.977 28.2017C202.88 28.5393 202.833 28.9003 202.833 29.2847C202.833 29.8462 202.92 30.3476 203.098 30.7922C203.273 31.2368 203.525 31.5844 203.854 31.8351C204.18 32.0858 204.576 32.2128 205.036 32.2128C205.177 32.2128 205.335 32.2028 205.506 32.1794C205.681 32.156 205.852 32.1192 206.027 32.0691C206.201 32.0189 206.352 31.9588 206.49 31.8886V30.9025C206.49 30.7354 206.49 30.5749 206.5 30.4145C206.507 30.254 206.514 30.1237 206.52 30.0234C206.409 30.0301 206.285 30.0334 206.144 30.0368C206.003 30.0401 205.892 30.0435 205.808 30.0501V29.4184H208.243V29.9465C208.109 29.9532 207.998 29.9766 207.917 30.0167C207.837 30.0568 207.766 30.1203 207.716 30.1972C207.665 30.2774 207.628 30.3744 207.612 30.488C207.591 30.6017 207.581 30.7354 207.581 30.8791V32.3833H207.34C207.185 32.3833 207.017 32.4067 206.829 32.4535C206.644 32.5003 206.44 32.5604 206.225 32.6306C206.027 32.6942 205.805 32.751 205.56 32.7978C205.315 32.8446 205.063 32.868 204.801 32.868L204.791 32.8747Z" fill="white"/>
<path d="M213.392 26.5471C213.217 26.5538 213.083 26.5838 212.982 26.6373C212.881 26.6908 212.814 26.7844 212.774 26.9181C212.737 27.0518 212.717 27.2423 212.717 27.493V31.2936C212.717 31.4674 212.717 31.6245 212.707 31.7716C212.7 31.9187 212.69 32.0323 212.676 32.1159C212.784 32.1092 212.912 32.1025 213.053 32.0958C213.194 32.0891 213.304 32.0858 213.388 32.0858V32.7175H210.83V32.1894C211.008 32.1827 211.149 32.1526 211.243 32.0992C211.34 32.0457 211.407 31.9487 211.444 31.8117C211.484 31.6747 211.501 31.4841 211.501 31.2435V27.4228C211.501 27.2624 211.504 27.1086 211.515 26.9616C211.525 26.8145 211.531 26.7008 211.538 26.6173C211.427 26.624 211.303 26.6273 211.162 26.6306C211.021 26.6306 210.91 26.6373 210.826 26.644V26.0123H213.385V26.5404L213.392 26.5471Z" fill="white"/>
<path d="M219.453 32.8747C218.845 32.8747 218.324 32.771 217.895 32.5671C217.465 32.3632 217.115 32.0891 216.85 31.7482C216.585 31.4072 216.39 31.0295 216.269 30.615C216.148 30.2006 216.088 29.7861 216.088 29.3716C216.088 28.9571 216.155 28.5627 216.289 28.1515C216.424 27.7404 216.632 27.3627 216.911 27.0184C217.189 26.6741 217.542 26.3967 217.965 26.1861C218.388 25.9755 218.885 25.8685 219.456 25.8685C220.027 25.8685 220.544 25.9755 220.971 26.1861C221.397 26.3967 221.746 26.6774 222.018 27.0251C222.29 27.3727 222.492 27.7504 222.623 28.1582C222.754 28.566 222.821 28.9705 222.821 29.3749C222.821 29.7794 222.754 30.1738 222.619 30.5816C222.485 30.9894 222.277 31.3671 221.998 31.7148C221.719 32.0624 221.367 32.3432 220.944 32.5571C220.521 32.771 220.024 32.878 219.453 32.878V32.8747ZM219.53 32.283C219.889 32.283 220.191 32.1994 220.44 32.0323C220.688 31.8652 220.887 31.6479 221.041 31.3805C221.195 31.1131 221.31 30.8156 221.384 30.4947C221.457 30.1738 221.494 29.8529 221.494 29.5421C221.494 29.1142 221.451 28.7131 221.36 28.3421C221.269 27.971 221.138 27.6401 220.96 27.3593C220.782 27.0786 220.561 26.8579 220.292 26.6941C220.024 26.5304 219.711 26.4535 219.359 26.4602C219.006 26.4669 218.707 26.5538 218.459 26.7242C218.21 26.8947 218.009 27.1153 217.854 27.3861C217.7 27.6568 217.582 27.9543 217.512 28.2819C217.441 28.6061 217.404 28.927 217.404 29.2379C217.404 29.5487 217.445 29.893 217.518 30.244C217.596 30.595 217.717 30.9259 217.884 31.2401C218.052 31.5543 218.271 31.805 218.543 31.9955C218.815 32.1861 219.144 32.283 219.53 32.283Z" fill="white"/>
<path d="M0 0V36H36.1662V0H0ZM21.9314 14.5738C17.5022 12.5047 14.7351 8.89805 13.1938 6.23733C12.2636 4.62953 11.6524 3.15877 11.2898 2.15599H16.216C16.9414 4.60947 19.4599 11.7827 24.9201 14.8412C23.7683 17.1543 21.3169 23.3114 21.29 33.8407H15.9877C16.4511 27.7838 18.0361 23.4384 19.3256 20.8111C20.8065 17.7894 22.2269 16.3187 22.2404 16.3086L23.315 15.2223L21.9281 14.5738H21.9314ZM27.3211 14.9649L28.0162 13.8953L26.8409 13.3905C21.9516 11.2847 19.3995 4.94039 18.4928 2.15933H23.184C23.4694 4.62618 24.6414 10.7866 29.3359 13.434C28.614 15.6267 27.0894 21.6769 27.0055 33.844H23.456C23.4929 21.0752 27.2808 15.0251 27.3178 14.9649H27.3211ZM2.16594 2.15599H8.99958C9.33203 3.18886 10.0372 5.09415 11.2797 7.25348C13.4557 11.034 16.3739 13.9955 19.7722 15.8941C18.063 18.1538 14.5303 23.9365 13.8117 33.8407H2.16594V2.15599ZM33.9969 33.8407H29.1748C29.2856 18.8056 31.653 13.3972 31.6765 13.3471L32.1466 12.3376L31.1157 11.9031C26.8846 10.1181 25.6958 4.55933 25.3768 2.15599H34.0003V33.8407H33.9969Z" fill="#D05092"/>
</g>
<defs>
<clipPath id="clip0_4803_2">
<rect width="222.904" height="36" fill="white"/>
</clipPath>
</defs>
</svg>
