<svg width="252" height="13" viewBox="0 0 252 13" fill="none" xmlns="http://www.w3.org/2000/svg">
<path d="M8.65976 12.7801L11.7798 9.64005L9.40976 7.25005L34.4498 7.25005L37.1498 9.93005L39.8498 7.25005L41.3598 7.25005L44.0598 9.93005L46.7598 7.25005L76.7898 7.25004L78.8698 9.31004L80.9498 7.25004L82.4598 7.25004L84.5398 9.31004L86.6198 7.25004L117.9 7.25004L119.98 9.31004L122.06 7.25004L123.57 7.25004L125.65 9.31004L127.73 7.25004L159.01 7.25004L161.09 9.31004L163.17 7.25004L164.68 7.25004L166.76 9.31004L168.84 7.25004L200.12 7.25003L202.2 9.31003L204.28 7.25003L205.79 7.25003L207.87 9.31003L209.95 7.25003L241.32 7.25003C244.46 7.25003 247.6 7.33003 250.74 7.25003C250.88 7.25003 251.01 7.25003 251.15 7.25003C251.63 7.25003 251.63 5.75003 251.15 5.75003L209.87 5.75003L207.79 3.69003L205.71 5.75003L204.2 5.75003L202.12 3.69003L200.04 5.75003L168.76 5.75004L166.68 3.69004L164.6 5.75004L163.09 5.75004L161.01 3.69004L158.93 5.75004L127.65 5.75004L125.57 3.69004L123.49 5.75004L121.98 5.75004L119.9 3.69004L117.82 5.75004L86.5398 5.75004L84.4598 3.69004L82.3798 5.75004L80.8698 5.75004L78.7898 3.69004L76.7098 5.75004L46.6698 5.75005L43.9698 3.07005L41.2698 5.75005L39.7598 5.75005L37.0598 3.07005L34.3598 5.75005L18.8398 5.75005C15.6998 5.75005 12.5598 5.67005 9.41975 5.75005C9.38975 5.75005 9.34976 5.75005 9.31976 5.75005L11.6898 3.36005L8.56976 0.22005L5.44975 3.36005L8.56976 6.50005L5.44975 9.64005L8.56976 12.7801L8.65976 12.7801ZM8.72977 6.58005L8.64976 6.50005L8.72977 6.42005C8.72977 6.47005 8.72977 6.53005 8.72977 6.58005Z" fill="white"/>
<path d="M2.42976 8.95005L4.85976 6.50005L2.42976 4.06005L-0.00024469 6.50005L2.42976 8.95005Z" fill="white"/>
</svg>
