<svg width="253" height="310" viewBox="0 0 253 310" fill="none" xmlns="http://www.w3.org/2000/svg">
<path d="M131.64 309.09C128.96 309.09 126.65 306.92 124.42 304.83C122.66 303.18 120.84 301.47 119.17 301.23C117.41 300.98 115.15 302.13 112.95 303.25C110.27 304.61 107.49 306.02 104.99 305.29C102.44 304.54 100.84 301.82 99.2995 299.2C98.0695 297.11 96.7995 294.94 95.2495 294.23C93.6595 293.5 91.1695 293.96 88.7595 294.41C85.7895 294.96 82.7095 295.53 80.5095 294.11C78.2895 292.68 77.5295 289.63 76.7995 286.69C76.2095 284.32 75.5995 281.88 74.2995 280.75C72.9895 279.61 70.4795 279.35 68.0495 279.11C65.0395 278.8 61.9195 278.48 60.1895 276.49C58.4695 274.5 58.5895 271.38 58.7095 268.35C58.8095 265.91 58.9095 263.38 57.9595 261.92C57.0295 260.47 54.6995 259.52 52.4395 258.61C49.6195 257.46 46.7095 256.28 45.6095 253.87C44.5195 251.49 45.5195 248.54 46.4895 245.68C47.2795 243.35 48.0895 240.95 47.5895 239.26C47.1095 237.63 45.1595 236.06 43.2595 234.55C40.8695 232.64 38.4095 230.67 38.0295 228.03C37.6595 225.47 39.4495 222.93 41.1695 220.47C42.5895 218.45 44.0595 216.36 44.0595 214.57C44.0595 212.78 42.5895 210.7 41.1695 208.68C39.4495 206.22 37.6595 203.68 38.0295 201.12C38.4095 198.48 40.8695 196.5 43.2595 194.6C45.1495 193.09 47.1095 191.53 47.5895 189.89C48.0795 188.21 47.2695 185.8 46.4895 183.47C45.5195 180.61 44.5295 177.65 45.6095 175.28C46.7095 172.87 49.6195 171.68 52.4395 170.54C54.6895 169.62 57.0195 168.67 57.9595 167.23C58.8995 165.77 58.7995 163.24 58.6995 160.8C58.5795 157.78 58.4595 154.65 60.1795 152.66C61.9095 150.67 65.0195 150.35 68.0395 150.04C70.4695 149.79 72.9795 149.53 74.2895 148.4C75.5995 147.27 76.2095 144.82 76.7895 142.45C77.5195 139.51 78.2795 136.46 80.4995 135.03C82.6995 133.61 85.7795 134.18 88.7495 134.73C91.1595 135.17 93.6495 135.63 95.2395 134.91C96.7995 134.2 98.0695 132.03 99.2895 129.94C100.83 127.31 102.42 124.59 104.98 123.85C107.48 123.12 110.25 124.53 112.94 125.89C115.14 127 117.4 128.16 119.16 127.91C120.83 127.67 122.65 125.96 124.41 124.31C126.64 122.22 128.94 120.05 131.63 120.05C134.32 120.05 136.62 122.22 138.85 124.31C140.61 125.96 142.43 127.67 144.1 127.91C145.86 128.16 148.12 127.01 150.32 125.89C153.01 124.53 155.78 123.12 158.28 123.85C160.83 124.6 162.43 127.32 163.97 129.94C165.2 132.03 166.47 134.2 168.02 134.91C169.61 135.64 172.1 135.18 174.51 134.73C177.48 134.18 180.56 133.61 182.76 135.03C184.98 136.46 185.74 139.51 186.47 142.45C187.06 144.82 187.67 147.26 188.97 148.39C190.28 149.53 192.79 149.78 195.22 150.03C198.23 150.34 201.35 150.66 203.08 152.65C204.8 154.64 204.68 157.76 204.56 160.79C204.46 163.23 204.36 165.76 205.31 167.22C206.24 168.67 208.57 169.62 210.83 170.53C213.65 171.68 216.56 172.86 217.66 175.27C218.75 177.65 217.75 180.6 216.78 183.46C215.99 185.79 215.18 188.19 215.68 189.88C216.16 191.51 218.11 193.07 220.01 194.59C222.4 196.5 224.86 198.47 225.24 201.11C225.61 203.67 223.82 206.21 222.1 208.67C220.68 210.69 219.21 212.78 219.21 214.56C219.21 216.34 220.68 218.43 222.1 220.46C223.82 222.92 225.61 225.46 225.24 228.02C224.86 230.66 222.4 232.64 220.01 234.54C218.12 236.05 216.16 237.61 215.68 239.25C215.19 240.93 216 243.34 216.78 245.67C217.75 248.53 218.74 251.49 217.66 253.86C216.56 256.27 213.65 257.46 210.83 258.6C208.58 259.52 206.25 260.47 205.31 261.91C204.37 263.37 204.47 265.9 204.57 268.34C204.69 271.36 204.81 274.49 203.09 276.48C201.36 278.47 198.25 278.79 195.23 279.1C192.8 279.35 190.29 279.61 188.98 280.74C187.67 281.87 187.06 284.32 186.47 286.69C185.74 289.64 184.98 292.68 182.76 294.11C180.55 295.53 177.48 294.96 174.51 294.41C172.1 293.97 169.61 293.51 168.02 294.23C166.46 294.94 165.19 297.11 163.97 299.2C162.43 301.83 160.84 304.55 158.28 305.29C155.78 306.02 153.01 304.61 150.32 303.25C148.12 302.14 145.86 300.98 144.1 301.23C142.43 301.47 140.61 303.18 138.85 304.83C136.62 306.92 134.32 309.09 131.63 309.09H131.64ZM118.67 299.19C118.93 299.19 119.2 299.21 119.46 299.24C121.76 299.57 123.81 301.5 125.8 303.36C127.74 305.19 129.76 307.08 131.65 307.08C133.54 307.08 135.55 305.19 137.5 303.36C139.49 301.49 141.54 299.56 143.84 299.24C146.22 298.9 148.77 300.2 151.24 301.45C153.58 302.64 155.99 303.87 157.73 303.35C159.52 302.83 160.91 300.46 162.25 298.16C163.63 295.8 165.07 293.36 167.2 292.38C169.36 291.39 172.17 291.91 174.88 292.41C177.47 292.89 180.15 293.38 181.69 292.39C183.24 291.39 183.9 288.73 184.54 286.17C185.21 283.5 185.89 280.74 187.68 279.2C189.47 277.65 192.3 277.36 195.04 277.08C197.67 276.81 200.38 276.53 201.59 275.14C202.79 273.75 202.68 271.03 202.58 268.39C202.47 265.64 202.36 262.79 203.64 260.79C204.91 258.81 207.54 257.74 210.08 256.71C212.54 255.71 215.07 254.68 215.85 252.99C216.61 251.33 215.74 248.76 214.9 246.27C214.02 243.65 213.1 240.94 213.77 238.65C214.43 236.41 216.63 234.65 218.77 232.94C220.85 231.28 223 229.56 223.27 227.7C223.52 225.92 221.97 223.71 220.47 221.57C218.87 219.29 217.22 216.94 217.22 214.53C217.22 212.12 218.87 209.76 220.47 207.49C221.97 205.35 223.52 203.14 223.27 201.36C223.01 199.5 220.85 197.78 218.77 196.12C216.64 194.42 214.43 192.65 213.77 190.41C213.1 188.12 214.01 185.41 214.9 182.79C215.74 180.3 216.61 177.73 215.85 176.07C215.08 174.38 212.54 173.35 210.08 172.35C207.54 171.31 204.91 170.24 203.64 168.27C202.36 166.28 202.47 163.43 202.58 160.67C202.68 158.03 202.79 155.31 201.59 153.92C200.38 152.53 197.67 152.25 195.04 151.98C192.3 151.7 189.47 151.41 187.68 149.86C185.9 148.31 185.21 145.56 184.55 142.89C183.91 140.32 183.25 137.67 181.69 136.67C180.15 135.68 177.47 136.17 174.88 136.65C172.17 137.15 169.36 137.67 167.2 136.68C165.07 135.71 163.64 133.26 162.25 130.9C160.91 128.61 159.52 126.24 157.73 125.71C155.99 125.2 153.58 126.43 151.24 127.61C148.77 128.86 146.21 130.16 143.84 129.82C141.54 129.49 139.49 127.56 137.5 125.7C135.55 123.87 133.54 121.98 131.65 121.98C129.76 121.98 127.75 123.87 125.8 125.7C123.81 127.57 121.76 129.49 119.46 129.82C117.09 130.16 114.53 128.86 112.06 127.61C109.72 126.43 107.31 125.2 105.57 125.71C103.78 126.24 102.39 128.6 101.05 130.9C99.6695 133.26 98.2295 135.7 96.0995 136.68C93.9295 137.67 91.1295 137.15 88.4195 136.65C85.8295 136.17 83.1495 135.68 81.6095 136.67C80.0595 137.67 79.3995 140.33 78.7495 142.89C78.0895 145.56 77.3995 148.32 75.6195 149.86C73.8295 151.41 70.9995 151.7 68.2595 151.98C65.6295 152.25 62.9195 152.53 61.7095 153.92C60.5095 155.31 60.6195 158.03 60.7195 160.67C60.8295 163.42 60.9395 166.27 59.6595 168.27C58.3895 170.25 55.7595 171.32 53.2195 172.35C50.7595 173.35 48.2295 174.38 47.4495 176.07C46.6895 177.73 47.5595 180.3 48.3995 182.79C49.2795 185.41 50.1995 188.12 49.5295 190.41C48.8695 192.65 46.6695 194.41 44.5295 196.12C42.4495 197.78 40.2995 199.5 40.0295 201.36C39.7795 203.14 41.3295 205.35 42.8295 207.49C44.4295 209.77 46.0795 212.12 46.0795 214.53C46.0795 216.94 44.4295 219.3 42.8295 221.57C41.3295 223.71 39.7795 225.92 40.0295 227.7C40.2895 229.56 42.4495 231.28 44.5295 232.94C46.6595 234.64 48.8695 236.41 49.5295 238.65C50.1995 240.94 49.2895 243.65 48.3995 246.27C47.5595 248.76 46.6895 251.33 47.4495 252.99C48.2195 254.68 50.7595 255.71 53.2195 256.71C55.7595 257.75 58.3895 258.82 59.6595 260.79C60.9395 262.78 60.8295 265.63 60.7195 268.39C60.6095 271.03 60.5095 273.75 61.7095 275.14C62.9195 276.53 65.6295 276.81 68.2595 277.08C70.9995 277.36 73.8295 277.65 75.6195 279.2C77.3995 280.74 78.0895 283.5 78.7495 286.17C79.3895 288.74 80.0495 291.39 81.6095 292.39C83.1495 293.38 85.8295 292.89 88.4195 292.41C91.1295 291.91 93.9395 291.39 96.0995 292.38C98.2295 293.35 99.6595 295.8 101.05 298.16C102.39 300.45 103.78 302.82 105.57 303.35C107.31 303.86 109.72 302.63 112.06 301.45C114.26 300.33 116.53 299.18 118.68 299.18L118.67 299.19Z" fill="#FF3131"/>
<path d="M0.814453 28.272V26.48H20.1425C24.6225 26.48 28.0785 27.4827 30.5105 29.488C32.9425 31.4933 34.1585 34.1813 34.1585 37.552V39.024C34.1585 41.584 33.4545 43.76 32.0465 45.552C30.6385 47.344 28.6118 48.624 25.9665 49.392L33.9665 64.624C34.4785 65.5627 34.8625 66.2453 35.1185 66.672C35.3745 67.0987 35.6091 67.376 35.8225 67.504C36.0785 67.5893 36.4198 67.6747 36.8465 67.76L39.7265 68.208V70H27.7585L18.0945 50.16H13.4225V64.624C13.4225 66.0747 13.4865 66.9493 13.6145 67.248C13.7425 67.504 14.1478 67.6747 14.8305 67.76L18.3505 68.208V70H0.814453V68.208L4.33445 67.76C5.01712 67.6747 5.42245 67.504 5.55045 67.248C5.67845 66.9493 5.74245 66.0747 5.74245 64.624V31.856C5.74245 30.4053 5.67845 29.552 5.55045 29.296C5.42245 28.9973 5.01712 28.8053 4.33445 28.72L0.814453 28.272ZM20.1425 28.72H13.4225V47.92H20.1425C22.0198 47.92 23.4491 47.344 24.4305 46.192C25.4545 44.9973 25.9665 42.8213 25.9665 39.664V36.912C25.9665 33.7547 25.4545 31.6 24.4305 30.448C23.4491 29.296 22.0198 28.72 20.1425 28.72Z" fill="white"/>
<path d="M51.718 68.208V70H39.366V68.208L42.886 67.76C43.3553 67.6747 43.6966 67.5893 43.91 67.504C44.1233 67.376 44.3153 67.0987 44.486 66.672C44.6566 66.2453 44.8913 65.5627 45.19 64.624L57.414 26.48H62.918L75.206 64.624C75.5046 65.5627 75.7393 66.2453 75.91 66.672C76.0806 67.0987 76.2726 67.376 76.486 67.504C76.742 67.5893 77.0833 67.6747 77.51 67.76L81.03 68.208V70H63.366V68.208L66.886 67.76C67.5686 67.6747 67.9313 67.504 67.974 67.248C68.0593 66.9493 67.8673 66.0747 67.398 64.624L64.966 56.688H50.182L47.686 64.624C47.2593 66.0747 47.0673 66.9493 47.11 67.248C47.1526 67.504 47.5153 67.6747 48.198 67.76L51.718 68.208ZM50.95 54.448H64.262L57.67 33.2L50.95 54.448Z" fill="white"/>
<path d="M101.791 52.08V50.288H119.967V52.08L116.447 52.528C115.765 52.6133 115.359 52.8053 115.231 53.104C115.103 53.36 115.039 54.2133 115.039 55.664V70H113.311C112.159 68.8053 110.879 67.8027 109.471 66.992C108.319 68.016 106.954 68.8907 105.375 69.616C103.797 70.2987 101.877 70.64 99.6155 70.64C96.1168 70.64 93.1088 69.7653 90.5915 68.016C88.1168 66.224 86.2181 63.7707 84.8955 60.656C83.5728 57.4987 82.9115 53.9147 82.9115 49.904V45.872C82.9115 41.9893 83.5728 38.5547 84.8955 35.568C86.2181 32.5387 88.1595 30.1707 90.7195 28.464C93.2795 26.7147 96.4155 25.84 100.127 25.84C103.626 25.84 106.506 26.48 108.767 27.76C111.071 28.9973 112.757 30.6613 113.823 32.752C114.89 34.8 115.295 37.04 115.039 39.472L107.551 41.328C108.021 37.0613 107.551 33.7973 106.143 31.536C104.735 29.232 102.645 28.08 99.8715 28.08C94.0261 28.08 91.1035 33.264 91.1035 43.632V52.784C91.1035 63.1947 94.1968 68.4 100.383 68.4C101.749 68.4 103.114 68.1227 104.479 67.568C105.887 67.0133 107.061 66.2027 107.999 65.136V55.664C107.999 54.2133 107.935 53.3387 107.807 53.04C107.679 52.7413 107.274 52.5707 106.591 52.528L101.791 52.08Z" fill="white"/>
<path d="M133.093 68.208V70H120.741V68.208L124.261 67.76C124.73 67.6747 125.072 67.5893 125.285 67.504C125.498 67.376 125.69 67.0987 125.861 66.672C126.032 66.2453 126.266 65.5627 126.565 64.624L138.789 26.48H144.293L156.581 64.624C156.88 65.5627 157.114 66.2453 157.285 66.672C157.456 67.0987 157.648 67.376 157.861 67.504C158.117 67.5893 158.458 67.6747 158.885 67.76L162.405 68.208V70H144.741V68.208L148.261 67.76C148.944 67.6747 149.306 67.504 149.349 67.248C149.434 66.9493 149.242 66.0747 148.773 64.624L146.341 56.688H131.557L129.061 64.624C128.634 66.0747 128.442 66.9493 128.485 67.248C128.528 67.504 128.89 67.6747 129.573 67.76L133.093 68.208ZM132.325 54.448H145.637L139.045 33.2L132.325 54.448Z" fill="white"/>
<path d="M192.72 58.992H194.512V70H164.432V68.4L185.168 28.72H172.752C171.771 28.72 171.045 28.7627 170.576 28.848C170.149 28.8907 169.872 29.04 169.744 29.296C169.616 29.5093 169.467 29.872 169.296 30.384L167.248 37.488H165.456V26.48H193.872V28.08L173.136 67.76H187.216C188.24 67.76 188.965 67.7387 189.392 67.696C189.819 67.6107 190.096 67.4613 190.224 67.248C190.395 66.992 190.544 66.608 190.672 66.096L192.72 58.992Z" fill="white"/>
<path d="M227.657 58.992H229.449V70H199.369V68.4L220.105 28.72H207.689C206.708 28.72 205.983 28.7627 205.513 28.848C205.087 28.8907 204.809 29.04 204.681 29.296C204.553 29.5093 204.404 29.872 204.233 30.384L202.185 37.488H200.393V26.48H228.809V28.08L208.073 67.76H222.153C223.177 67.76 223.903 67.7387 224.329 67.696C224.756 67.6107 225.033 67.4613 225.161 67.248C225.332 66.992 225.481 66.608 225.609 66.096L227.657 58.992Z" fill="white"/>
<path d="M234.627 28.272V26.48H252.163V28.272L248.643 28.72C247.96 28.8053 247.555 28.9973 247.427 29.296C247.299 29.552 247.235 30.4053 247.235 31.856V64.624C247.235 66.0747 247.299 66.9493 247.427 67.248C247.555 67.504 247.96 67.6747 248.643 67.76L252.163 68.208V70H234.627V68.208L238.147 67.76C238.83 67.6747 239.235 67.504 239.363 67.248C239.491 66.9493 239.555 66.0747 239.555 64.624V31.856C239.555 30.4053 239.491 29.552 239.363 29.296C239.235 28.9973 238.83 28.8053 238.147 28.72L234.627 28.272Z" fill="white"/>
<path d="M105.328 207.188L102.281 208.078C100.344 208.641 98.8906 209.172 97.9218 209.672C96.2031 210.609 94.9375 211.063 94.125 211.031C92.7812 211 92.1562 210.422 92.25 209.297C92.3125 208.141 93.3593 207.328 95.3906 206.859C96.5468 206.547 97.7031 206.219 98.8593 205.875L129.281 196.734V264H105.281L105.328 207.188Z" fill="white"/>
<path d="M140.461 249.305L139.242 249.422C138.961 249.438 138.641 249.445 138.281 249.445C137.937 249.445 137.641 249.344 137.391 249.141C137.125 248.938 136.992 248.688 136.992 248.391C136.992 248.094 137.117 247.852 137.367 247.664C137.602 247.461 137.867 247.359 138.164 247.359C138.461 247.359 138.734 247.367 138.984 247.383L139.734 247.43L140.344 247.5V247.125C140.344 245.828 140.492 244.5 140.789 243.141C139.727 243.203 139.078 243.234 138.844 243.234C138.625 243.234 138.391 243.133 138.141 242.93C137.875 242.711 137.742 242.461 137.742 242.18C137.742 241.508 138.187 241.172 139.078 241.172C139.266 241.172 139.484 241.18 139.734 241.195L140.484 241.242L141.328 241.313C142.562 237.969 144.703 235.328 147.75 233.391C150.859 231.406 154.445 230.414 158.508 230.414C161.43 230.414 164 230.914 166.219 231.914C168.578 232.961 169.758 233.852 169.758 234.586C169.758 234.883 169.656 235.141 169.453 235.359C169.266 235.578 169.047 235.688 168.797 235.688C168.297 235.688 167.844 235.469 167.437 235.031C167.031 234.578 166.477 234.172 165.773 233.813C165.086 233.453 164.328 233.141 163.5 232.875C161.812 232.359 160.273 232.102 158.883 232.102C157.508 232.102 156.367 232.195 155.461 232.383V241.359H160.383C161.352 241.359 162.047 241.336 162.469 241.289C163.172 241.211 163.727 241.172 164.133 241.172C165.023 241.172 165.469 241.508 165.469 242.18C165.469 242.461 165.344 242.711 165.094 242.93C164.859 243.133 164.578 243.234 164.25 243.234C163.922 243.234 163.336 243.211 162.492 243.164L155.461 243.094V247.57H159.633C160.477 247.57 161.141 247.547 161.625 247.5C162.391 247.406 162.977 247.359 163.383 247.359C163.805 247.359 164.133 247.461 164.367 247.664C164.602 247.852 164.719 248.094 164.719 248.391C164.719 248.688 164.594 248.938 164.344 249.141C164.109 249.344 163.75 249.445 163.266 249.445L159.937 249.281H155.461V262.43C156.555 262.617 157.523 262.711 158.367 262.711C159.211 262.711 160.07 262.656 160.945 262.547C161.82 262.438 162.68 262.258 163.523 262.008C165.414 261.445 166.836 260.617 167.789 259.523C168.133 259.117 168.406 258.836 168.609 258.68C168.812 258.523 169.047 258.445 169.312 258.445C169.953 258.445 170.273 258.805 170.273 259.523C170.273 260.117 169.82 260.711 168.914 261.305C167.227 262.414 165.805 263.141 164.648 263.484C162.477 264.125 160.242 264.445 157.945 264.445C155.664 264.445 153.477 264.078 151.383 263.344C149.305 262.609 147.5 261.578 145.969 260.25C142.766 257.469 140.93 253.82 140.461 249.305Z" fill="white"/>
<path d="M15.5312 89.368H16.5392V98.332H15.5312L14.7392 95.416C14.6672 95.128 14.5832 94.924 14.4872 94.804C14.4152 94.66 14.2592 94.576 14.0192 94.552C13.7792 94.504 13.3712 94.48 12.7952 94.48H9.08722V102.976C9.08722 103.792 9.12322 104.284 9.19522 104.452C9.26722 104.596 9.49522 104.692 9.87922 104.74L12.5792 104.992V106H1.99522V104.992L3.97522 104.74C4.35922 104.692 4.58722 104.596 4.65922 104.452C4.73122 104.284 4.76722 103.792 4.76722 102.976V84.544C4.76722 83.728 4.73122 83.248 4.65922 83.104C4.58722 82.936 4.35922 82.828 3.97522 82.78L1.99522 82.528V81.52H19.0592V87.712H18.0512L16.8992 83.716C16.8272 83.428 16.7432 83.224 16.6472 83.104C16.5752 82.96 16.4192 82.876 16.1792 82.852C15.9392 82.804 15.5312 82.78 14.9552 82.78H9.08722V93.22H12.7952C13.3712 93.22 13.7792 93.208 14.0192 93.184C14.2592 93.136 14.4152 93.052 14.4872 92.932C14.5832 92.788 14.6672 92.572 14.7392 92.284L15.5312 89.368Z" fill="white"/>
<path d="M21.9288 82.528V81.52H31.7928V82.528L29.8128 82.78C29.4288 82.828 29.2008 82.936 29.1288 83.104C29.0568 83.248 29.0208 83.728 29.0208 84.544V102.976C29.0208 103.792 29.0568 104.284 29.1288 104.452C29.2008 104.596 29.4288 104.692 29.8128 104.74L31.7928 104.992V106H21.9288V104.992L23.9088 104.74C24.2928 104.692 24.5208 104.596 24.5928 104.452C24.6648 104.284 24.7008 103.792 24.7008 102.976V84.544C24.7008 83.728 24.6648 83.248 24.5928 83.104C24.5208 82.936 24.2928 82.828 23.9088 82.78L21.9288 82.528Z" fill="white"/>
<path d="M50.0935 82.528V81.52H57.0775V82.528L55.0975 82.78C54.7135 82.828 54.4855 82.936 54.4135 83.104C54.3415 83.248 54.3055 83.728 54.3055 84.544V106H52.3255L39.1135 84.652V102.976C39.1135 103.792 39.1495 104.284 39.2215 104.452C39.2935 104.596 39.5215 104.692 39.9055 104.74L41.8855 104.992V106H34.9015V104.992L36.8815 104.74C37.2655 104.692 37.4935 104.596 37.5655 104.452C37.6375 104.284 37.6735 103.792 37.6735 102.976V84.544C37.6735 83.728 37.6375 83.248 37.5655 83.104C37.4935 82.936 37.2655 82.828 36.8815 82.78L34.9015 82.528V81.52H42.1375L52.8655 98.764V84.544C52.8655 83.728 52.8295 83.248 52.7575 83.104C52.6855 82.936 52.4575 82.828 52.0735 82.78L50.0935 82.528Z" fill="white"/>
<path d="M79.9563 92.608V94.876C79.9563 98.572 79.1283 101.416 77.4723 103.408C75.8403 105.376 73.4163 106.36 70.2003 106.36C66.9843 106.36 64.5483 105.376 62.8923 103.408C61.2603 101.416 60.4443 98.572 60.4443 94.876V92.608C60.4443 88.912 61.2603 86.08 62.8923 84.112C64.5483 82.144 66.9843 81.16 70.2003 81.16C73.4163 81.16 75.8403 82.144 77.4723 84.112C79.1283 86.08 79.9563 88.912 79.9563 92.608ZM75.3483 90.808C75.3483 88.696 75.1683 87.04 74.8083 85.84C74.4483 84.616 73.8843 83.74 73.1163 83.212C72.3723 82.684 71.4003 82.42 70.2003 82.42C69.0243 82.42 68.0523 82.684 67.2843 83.212C66.5163 83.74 65.9523 84.616 65.5923 85.84C65.2323 87.04 65.0523 88.696 65.0523 90.808V96.676C65.0523 98.764 65.2323 100.42 65.5923 101.644C65.9523 102.868 66.5163 103.756 67.2843 104.308C68.0523 104.836 69.0243 105.1 70.2003 105.1C71.4003 105.1 72.3723 104.836 73.1163 104.308C73.8843 103.756 74.4483 102.868 74.8083 101.644C75.1683 100.42 75.3483 98.764 75.3483 96.676V90.808Z" fill="white"/>
<path d="M97.1089 104.992V106H90.1609V104.992L92.1409 104.74C92.4049 104.692 92.5969 104.644 92.7169 104.596C92.8369 104.524 92.9449 104.368 93.0409 104.128C93.1369 103.888 93.2689 103.504 93.4369 102.976L100.313 81.52H103.409L110.321 102.976C110.489 103.504 110.621 103.888 110.717 104.128C110.813 104.368 110.921 104.524 111.041 104.596C111.185 104.644 111.377 104.692 111.617 104.74L113.597 104.992V106H103.661V104.992L105.641 104.74C106.025 104.692 106.229 104.596 106.253 104.452C106.301 104.284 106.193 103.792 105.929 102.976L104.561 98.512H96.2449L94.8409 102.976C94.6009 103.792 94.4929 104.284 94.5169 104.452C94.5409 104.596 94.7449 104.692 95.1289 104.74L97.1089 104.992ZM96.6769 97.252H104.165L100.457 85.3L96.6769 97.252Z" fill="white"/>
<path d="M137.26 98.044H138.268V106H123.184V103.48C123.184 101.992 123.412 100.744 123.868 99.736C124.348 98.704 124.984 97.816 125.776 97.072C126.568 96.328 127.42 95.668 128.332 95.092C129.22 94.492 130.096 93.88 130.96 93.256C131.848 92.608 132.58 91.828 133.156 90.916C133.732 89.98 134.02 88.792 134.02 87.352C134.02 84.064 132.928 82.42 130.744 82.42C129.4 82.42 128.452 83.008 127.9 84.184C127.372 85.36 127.228 87.028 127.468 89.188L123.148 88.612C122.932 87.316 123.052 86.104 123.508 84.976C123.988 83.848 124.828 82.936 126.028 82.24C127.252 81.52 128.836 81.16 130.78 81.16C132.676 81.16 134.2 81.472 135.352 82.096C136.504 82.696 137.344 83.5 137.872 84.508C138.424 85.492 138.7 86.56 138.7 87.712C138.7 89.128 138.412 90.292 137.836 91.204C137.26 92.116 136.504 92.872 135.568 93.472C134.632 94.048 133.624 94.552 132.544 94.984C131.464 95.392 130.42 95.836 129.412 96.316C128.188 96.868 127.144 97.612 126.28 98.548C125.416 99.46 124.888 100.696 124.696 102.256H134.524C135.1 102.256 135.508 102.244 135.748 102.22C135.988 102.172 136.144 102.088 136.216 101.968C136.312 101.824 136.396 101.608 136.468 101.32L137.26 98.044Z" fill="#FF3131"/>
<path d="M155.303 78.388H156.311V85.264H144.827L144.431 92.212C145.079 91.756 145.823 91.408 146.663 91.168C147.527 90.904 148.439 90.772 149.399 90.772C151.031 90.772 152.447 91.084 153.647 91.708C154.871 92.332 155.819 93.208 156.491 94.336C157.163 95.464 157.499 96.808 157.499 98.368C157.499 99.784 157.223 101.104 156.671 102.328C156.119 103.528 155.219 104.5 153.971 105.244C152.747 105.988 151.127 106.36 149.111 106.36C147.287 106.36 145.751 105.928 144.503 105.064C143.255 104.176 142.451 102.712 142.091 100.672L144.647 99.988C144.887 101.812 145.355 103.12 146.051 103.912C146.771 104.704 147.683 105.1 148.787 105.1C150.179 105.1 151.199 104.584 151.847 103.552C152.495 102.496 152.819 100.768 152.819 98.368C152.819 97.12 152.699 96.028 152.459 95.092C152.243 94.132 151.835 93.388 151.235 92.86C150.635 92.308 149.795 92.032 148.715 92.032C147.995 92.032 147.227 92.176 146.411 92.464C145.595 92.752 144.767 93.28 143.927 94.048L143.063 93.508L143.747 81.52H152.927C153.767 81.52 154.271 81.472 154.439 81.376C154.631 81.28 154.775 81.016 154.871 80.584L155.303 78.388Z" fill="#FF3131"/>
<path d="M173.89 104.992V106H166.942V104.992L168.922 104.74C169.186 104.692 169.378 104.644 169.498 104.596C169.618 104.524 169.726 104.368 169.822 104.128C169.918 103.888 170.05 103.504 170.218 102.976L177.094 81.52H180.19L187.102 102.976C187.27 103.504 187.402 103.888 187.498 104.128C187.594 104.368 187.702 104.524 187.822 104.596C187.966 104.644 188.158 104.692 188.398 104.74L190.378 104.992V106H180.442V104.992L182.422 104.74C182.806 104.692 183.01 104.596 183.034 104.452C183.082 104.284 182.974 103.792 182.71 102.976L181.342 98.512H173.026L171.622 102.976C171.382 103.792 171.274 104.284 171.298 104.452C171.322 104.596 171.526 104.692 171.91 104.74L173.89 104.992ZM173.458 97.252H180.946L177.238 85.3L173.458 97.252Z" fill="#FF3131"/>
<path d="M206.89 82.528V81.52H213.874V82.528L211.894 82.78C211.51 82.828 211.282 82.936 211.21 83.104C211.138 83.248 211.102 83.728 211.102 84.544V106H209.122L195.91 84.652V102.976C195.91 103.792 195.946 104.284 196.018 104.452C196.09 104.596 196.318 104.692 196.702 104.74L198.682 104.992V106H191.698V104.992L193.678 104.74C194.062 104.692 194.29 104.596 194.362 104.452C194.434 104.284 194.47 103.792 194.47 102.976V84.544C194.47 83.728 194.434 83.248 194.362 83.104C194.29 82.936 194.062 82.828 193.678 82.78L191.698 82.528V81.52H198.934L209.662 98.764V84.544C209.662 83.728 209.626 83.248 209.554 83.104C209.482 82.936 209.254 82.828 208.87 82.78L206.89 82.528Z" fill="#FF3131"/>
<path d="M231.605 82.528V81.52H238.589V82.528L236.609 82.78C236.225 82.828 235.997 82.936 235.925 83.104C235.853 83.248 235.817 83.728 235.817 84.544V106H233.837L220.625 84.652V102.976C220.625 103.792 220.661 104.284 220.733 104.452C220.805 104.596 221.033 104.692 221.417 104.74L223.397 104.992V106H216.413V104.992L218.393 104.74C218.777 104.692 219.005 104.596 219.077 104.452C219.149 104.284 219.185 103.792 219.185 102.976V84.544C219.185 83.728 219.149 83.248 219.077 83.104C219.005 82.936 218.777 82.828 218.393 82.78L216.413 82.528V81.52H223.649L234.377 98.764V84.544C234.377 83.728 234.341 83.248 234.269 83.104C234.197 82.936 233.969 82.828 233.585 82.78L231.605 82.528Z" fill="#FF3131"/>
<path d="M241.128 82.528V81.52H250.992V82.528L249.012 82.78C248.628 82.828 248.4 82.936 248.328 83.104C248.256 83.248 248.22 83.728 248.22 84.544V102.976C248.22 103.792 248.256 104.284 248.328 104.452C248.4 104.596 248.628 104.692 249.012 104.74L250.992 104.992V106H241.128V104.992L243.108 104.74C243.492 104.692 243.72 104.596 243.792 104.452C243.864 104.284 243.9 103.792 243.9 102.976V84.544C243.9 83.728 243.864 83.248 243.792 83.104C243.72 82.936 243.492 82.828 243.108 82.78L241.128 82.528Z" fill="#FF3131"/>
<path d="M77.2525 0.960013V0.400013H83.2725C84.7392 0.400013 85.8325 0.740013 86.5525 1.42001C87.2859 2.08668 87.6525 2.98001 87.6525 4.10001V4.56001C87.6525 5.68001 87.2859 6.58001 86.5525 7.26001C85.8325 7.94001 84.7392 8.28001 83.2725 8.28001H81.1925V12.32C81.1925 12.7733 81.2125 13.0467 81.2525 13.14C81.2925 13.22 81.4192 13.2733 81.6325 13.3L83.1325 13.44V14H77.2525V13.44L78.3525 13.3C78.5659 13.2733 78.6925 13.22 78.7325 13.14C78.7725 13.0467 78.7925 12.7733 78.7925 12.32V2.08001C78.7925 1.62668 78.7725 1.36001 78.7325 1.28001C78.6925 1.18668 78.5659 1.12668 78.3525 1.10001L77.2525 0.960013ZM83.2725 1.10001H81.1925V7.58001H83.2725C83.8592 7.58001 84.3059 7.34668 84.6125 6.88001C84.9325 6.41335 85.0925 5.77335 85.0925 4.96001V3.70001C85.0925 2.88668 84.9325 2.25335 84.6125 1.80001C84.3059 1.33335 83.8592 1.10001 83.2725 1.10001Z" fill="white"/>
<path d="M89.2057 0.960013V0.400013H95.2457C96.6457 0.400013 97.7257 0.713346 98.4857 1.34001C99.2457 1.96668 99.6257 2.80668 99.6257 3.86001V4.32001C99.6257 5.12001 99.4057 5.80001 98.9657 6.36001C98.5257 6.92001 97.8923 7.32001 97.0657 7.56001L99.5657 12.32C99.7257 12.6133 99.8457 12.8267 99.9257 12.96C100.006 13.0933 100.079 13.18 100.146 13.22C100.226 13.2467 100.332 13.2733 100.466 13.3L101.366 13.44V14H97.6257L94.6057 7.80001H93.1457V12.32C93.1457 12.7733 93.1657 13.0467 93.2057 13.14C93.2457 13.22 93.3723 13.2733 93.5857 13.3L94.6857 13.44V14H89.2057V13.44L90.3057 13.3C90.519 13.2733 90.6457 13.22 90.6857 13.14C90.7257 13.0467 90.7457 12.7733 90.7457 12.32V2.08001C90.7457 1.62668 90.7257 1.36001 90.6857 1.28001C90.6457 1.18668 90.519 1.12668 90.3057 1.10001L89.2057 0.960013ZM95.2457 1.10001H93.1457V7.10001H95.2457C95.8323 7.10001 96.279 6.92001 96.5857 6.56001C96.9057 6.18668 97.0657 5.50668 97.0657 4.52001V3.66001C97.0657 2.67335 96.9057 2.00001 96.5857 1.64001C96.279 1.28001 95.8323 1.10001 95.2457 1.10001Z" fill="white"/>
<path d="M113.533 6.56001V7.82001C113.533 9.87335 113.073 11.4533 112.153 12.56C111.246 13.6533 109.9 14.2 108.113 14.2C106.326 14.2 104.973 13.6533 104.053 12.56C103.146 11.4533 102.693 9.87335 102.693 7.82001V6.56001C102.693 4.50668 103.146 2.93335 104.053 1.84001C104.973 0.746679 106.326 0.200012 108.113 0.200012C109.9 0.200012 111.246 0.746679 112.153 1.84001C113.073 2.93335 113.533 4.50668 113.533 6.56001ZM110.973 5.56001C110.973 4.38668 110.873 3.46668 110.673 2.80001C110.473 2.12001 110.16 1.63335 109.733 1.34001C109.32 1.04668 108.78 0.900013 108.113 0.900013C107.46 0.900013 106.92 1.04668 106.493 1.34001C106.066 1.63335 105.753 2.12001 105.553 2.80001C105.353 3.46668 105.253 4.38668 105.253 5.56001V8.82001C105.253 9.98001 105.353 10.9 105.553 11.58C105.753 12.26 106.066 12.7533 106.493 13.06C106.92 13.3533 107.46 13.5 108.113 13.5C108.78 13.5 109.32 13.3533 109.733 13.06C110.16 12.7533 110.473 12.26 110.673 11.58C110.873 10.9 110.973 9.98001 110.973 8.82001V5.56001Z" fill="white"/>
<path d="M122.07 8.40001V7.84001H127.75V8.40001L126.65 8.54001C126.436 8.56668 126.31 8.62668 126.27 8.72001C126.23 8.80001 126.21 9.06668 126.21 9.52001V14H125.67C125.31 13.6267 124.91 13.3133 124.47 13.06C124.11 13.38 123.683 13.6533 123.19 13.88C122.696 14.0933 122.096 14.2 121.39 14.2C120.296 14.2 119.356 13.9267 118.57 13.38C117.796 12.82 117.203 12.0533 116.79 11.08C116.376 10.0933 116.17 8.97335 116.17 7.72001V6.46001C116.17 5.24668 116.376 4.17335 116.79 3.24001C117.203 2.29335 117.81 1.55335 118.61 1.02001C119.41 0.473346 120.39 0.200012 121.55 0.200012C122.643 0.200012 123.543 0.400012 124.25 0.800013C124.97 1.18668 125.496 1.70668 125.83 2.36001C126.163 3.00001 126.29 3.70001 126.21 4.46001L123.87 5.04001C124.016 3.70668 123.87 2.68668 123.43 1.98001C122.99 1.26001 122.336 0.900013 121.47 0.900013C119.643 0.900013 118.73 2.52001 118.73 5.76001V8.62001C118.73 11.8733 119.696 13.5 121.63 13.5C122.056 13.5 122.483 13.4133 122.91 13.24C123.35 13.0667 123.716 12.8133 124.01 12.48V9.52001C124.01 9.06668 123.99 8.79335 123.95 8.70001C123.91 8.60668 123.783 8.55335 123.57 8.54001L122.07 8.40001Z" fill="white"/>
<path d="M138.311 10.56H138.871V14H128.971V13.44L130.071 13.3C130.285 13.2733 130.411 13.22 130.451 13.14C130.491 13.0467 130.511 12.7733 130.511 12.32V2.08001C130.511 1.62668 130.491 1.36001 130.451 1.28001C130.411 1.18668 130.285 1.12668 130.071 1.10001L128.971 0.960013V0.400013H138.671V3.84001H138.111L137.471 1.62001C137.431 1.46001 137.385 1.34668 137.331 1.28001C137.291 1.20001 137.205 1.15335 137.071 1.14001C136.938 1.11335 136.711 1.10001 136.391 1.10001H132.911V6.78001H135.191C135.511 6.78001 135.738 6.77335 135.871 6.76001C136.005 6.73335 136.091 6.68668 136.131 6.62001C136.185 6.54001 136.231 6.42001 136.271 6.26001L136.711 4.64001H137.271V9.62001H136.711L136.271 8.00001C136.231 7.84001 136.185 7.72668 136.131 7.66001C136.091 7.58001 136.005 7.53335 135.871 7.52001C135.738 7.49335 135.511 7.48001 135.191 7.48001H132.911V13.3H136.591C136.911 13.3 137.138 13.2933 137.271 13.28C137.405 13.2533 137.491 13.2067 137.531 13.14C137.585 13.06 137.631 12.94 137.671 12.78L138.311 10.56Z" fill="white"/>
<path d="M140.402 0.400013H151.402V3.84001H150.842L150.202 1.62001C150.162 1.44668 150.115 1.32668 150.062 1.26001C150.022 1.18001 149.935 1.13335 149.802 1.12001C149.669 1.10668 149.442 1.10001 149.122 1.10001H147.102V12.32C147.102 12.7733 147.122 13.0467 147.162 13.14C147.202 13.22 147.329 13.2733 147.542 13.3L148.642 13.44V14H143.162V13.44L144.262 13.3C144.475 13.2733 144.602 13.22 144.642 13.14C144.682 13.0467 144.702 12.7733 144.702 12.32V1.10001H142.682C142.375 1.10001 142.149 1.10668 142.002 1.12001C141.869 1.13335 141.782 1.18001 141.742 1.26001C141.702 1.32668 141.655 1.44668 141.602 1.62001L140.962 3.84001H140.402V0.400013Z" fill="white"/>
<path d="M151.886 0.400013H162.886V3.84001H162.326L161.686 1.62001C161.646 1.44668 161.6 1.32668 161.546 1.26001C161.506 1.18001 161.42 1.13335 161.286 1.12001C161.153 1.10668 160.926 1.10001 160.606 1.10001H158.586V12.32C158.586 12.7733 158.606 13.0467 158.646 13.14C158.686 13.22 158.813 13.2733 159.026 13.3L160.126 13.44V14H154.646V13.44L155.746 13.3C155.96 13.2733 156.086 13.22 156.126 13.14C156.166 13.0467 156.186 12.7733 156.186 12.32V1.10001H154.166C153.86 1.10001 153.633 1.10668 153.486 1.12001C153.353 1.13335 153.266 1.18001 153.226 1.26001C153.186 1.32668 153.14 1.44668 153.086 1.62001L152.446 3.84001H151.886V0.400013Z" fill="white"/>
<path d="M175.291 6.56001V7.82001C175.291 9.87335 174.831 11.4533 173.911 12.56C173.004 13.6533 171.657 14.2 169.871 14.2C168.084 14.2 166.731 13.6533 165.811 12.56C164.904 11.4533 164.451 9.87335 164.451 7.82001V6.56001C164.451 4.50668 164.904 2.93335 165.811 1.84001C166.731 0.746679 168.084 0.200012 169.871 0.200012C171.657 0.200012 173.004 0.746679 173.911 1.84001C174.831 2.93335 175.291 4.50668 175.291 6.56001ZM172.731 5.56001C172.731 4.38668 172.631 3.46668 172.431 2.80001C172.231 2.12001 171.917 1.63335 171.491 1.34001C171.077 1.04668 170.537 0.900013 169.871 0.900013C169.217 0.900013 168.677 1.04668 168.251 1.34001C167.824 1.63335 167.511 2.12001 167.311 2.80001C167.111 3.46668 167.011 4.38668 167.011 5.56001V8.82001C167.011 9.98001 167.111 10.9 167.311 11.58C167.511 12.26 167.824 12.7533 168.251 13.06C168.677 13.3533 169.217 13.5 169.871 13.5C170.537 13.5 171.077 13.3533 171.491 13.06C171.917 12.7533 172.231 12.26 172.431 11.58C172.631 10.9 172.731 9.98001 172.731 8.82001V5.56001Z" fill="white"/>
<path d="M84.3562 170.352V169.68H90.9322V170.352L89.6122 170.52C89.3562 170.552 89.2042 170.624 89.1562 170.736C89.1082 170.832 89.0842 171.152 89.0842 171.696V183.984C89.0842 184.528 89.1082 184.856 89.1562 184.968C89.2042 185.064 89.3562 185.128 89.6122 185.16L90.9322 185.328V186H84.3562V185.328L85.6762 185.16C85.9322 185.128 86.0842 185.064 86.1322 184.968C86.1802 184.856 86.2042 184.528 86.2042 183.984V171.696C86.2042 171.152 86.1802 170.832 86.1322 170.736C86.0842 170.624 85.9322 170.552 85.6762 170.52L84.3562 170.352Z" fill="white"/>
<path d="M106.661 185.328V186H100.205V185.328L101.525 185.16C101.781 185.128 101.933 185.064 101.981 184.968C102.029 184.856 102.053 184.528 102.053 183.984V177.936C102.053 176.832 101.885 176.032 101.549 175.536C101.229 175.024 100.749 174.768 100.109 174.768C99.8366 174.768 99.5166 174.84 99.1486 174.984C98.7966 175.112 98.4366 175.352 98.0686 175.704C97.7166 176.056 97.4046 176.576 97.1326 177.264V183.984C97.1326 184.528 97.1566 184.856 97.2046 184.968C97.2526 185.064 97.4046 185.128 97.6606 185.16L98.9806 185.328V186H92.5246V185.328L93.8446 185.16C94.1006 185.128 94.2526 185.064 94.3006 184.968C94.3486 184.856 94.3726 184.528 94.3726 183.984V175.848C94.3726 175.304 94.3486 174.984 94.3006 174.888C94.2526 174.776 94.1006 174.704 93.8446 174.672L92.5246 174.504V173.832H96.9886V175.944C97.4526 175.128 98.0446 174.536 98.7646 174.168C99.5006 173.784 100.237 173.592 100.973 173.592C102.157 173.592 103.093 173.968 103.781 174.72C104.469 175.472 104.813 176.536 104.813 177.912V183.984C104.813 184.528 104.837 184.856 104.885 184.968C104.933 185.064 105.085 185.128 105.341 185.16L106.661 185.328Z" fill="white"/>
<path d="M119.19 187.248C119.19 188.56 118.694 189.568 117.702 190.272C116.726 190.992 115.382 191.352 113.67 191.352C111.782 191.352 110.374 191.04 109.446 190.416C108.518 189.808 108.014 189.048 107.934 188.136L110.502 187.728C110.438 188.576 110.638 189.248 111.102 189.744C111.582 190.256 112.438 190.512 113.67 190.512C114.822 190.512 115.75 190.296 116.454 189.864C117.174 189.432 117.534 188.808 117.534 187.992C117.534 187.416 117.318 186.976 116.886 186.672C116.47 186.384 115.774 186.24 114.798 186.24H112.062C111.214 186.24 110.542 186.12 110.046 185.88C109.566 185.64 109.23 185.344 109.038 184.992C108.846 184.624 108.75 184.248 108.75 183.864C108.75 183.4 108.878 182.944 109.134 182.496C109.39 182.032 109.83 181.576 110.454 181.128C109.766 180.824 109.206 180.376 108.774 179.784C108.342 179.192 108.126 178.456 108.126 177.576C108.126 176.68 108.334 175.944 108.75 175.368C109.166 174.776 109.726 174.336 110.43 174.048C111.134 173.744 111.918 173.592 112.782 173.592H113.19C114.118 173.592 114.918 173.744 115.59 174.048L119.046 172.344L119.334 174.696H116.598C116.982 175.032 117.278 175.44 117.486 175.92C117.71 176.384 117.822 176.936 117.822 177.576C117.822 178.44 117.614 179.168 117.198 179.76C116.782 180.352 116.222 180.8 115.518 181.104C114.83 181.408 114.054 181.56 113.19 181.56H112.782C112.302 181.56 111.83 181.512 111.366 181.416C110.966 181.688 110.686 181.952 110.526 182.208C110.382 182.448 110.31 182.68 110.31 182.904C110.31 183.16 110.422 183.352 110.646 183.48C110.886 183.608 111.27 183.672 111.798 183.672H114.918C116.294 183.672 117.35 183.984 118.086 184.608C118.822 185.216 119.19 186.096 119.19 187.248ZM113.19 180.72C113.702 180.72 114.142 180.496 114.51 180.048C114.878 179.6 115.062 178.776 115.062 177.576C115.062 176.376 114.878 175.552 114.51 175.104C114.142 174.656 113.702 174.432 113.19 174.432H112.782C112.27 174.432 111.822 174.656 111.438 175.104C111.07 175.552 110.886 176.376 110.886 177.576C110.886 178.776 111.07 179.6 111.438 180.048C111.822 180.496 112.27 180.72 112.782 180.72H113.19Z" fill="white"/>
<path d="M120.251 174.504V173.832H124.715V175.8C125.691 174.328 126.851 173.592 128.195 173.592C128.691 173.592 129.171 173.752 129.635 174.072C130.099 174.376 130.483 174.952 130.787 175.8L128.651 176.952C128.427 176.296 128.163 175.856 127.859 175.632C127.571 175.392 127.259 175.272 126.923 175.272C126.571 175.272 126.227 175.384 125.891 175.608C125.555 175.832 125.211 176.248 124.859 176.856V183.984C124.859 184.528 124.883 184.856 124.931 184.968C124.979 185.064 125.131 185.128 125.387 185.16L127.187 185.328V186H120.251V185.328L121.571 185.16C121.827 185.128 121.979 185.064 122.027 184.968C122.075 184.856 122.099 184.528 122.099 183.984V175.848C122.099 175.304 122.075 174.984 122.027 174.888C121.979 174.776 121.827 174.704 121.571 174.672L120.251 174.504Z" fill="white"/>
<path d="M141.81 183.144C141.522 184.264 140.986 185.064 140.202 185.544C139.418 186.008 138.506 186.24 137.466 186.24C135.546 186.24 134.106 185.688 133.146 184.584C132.186 183.464 131.706 181.984 131.706 180.144V179.664C131.706 177.824 132.154 176.352 133.05 175.248C133.962 174.144 135.274 173.592 136.986 173.592C137.946 173.592 138.794 173.784 139.53 174.168C140.282 174.536 140.866 175.072 141.282 175.776C141.714 176.48 141.93 177.336 141.93 178.344C141.93 178.584 141.914 178.84 141.882 179.112C141.866 179.384 141.826 179.656 141.762 179.928H134.658V180.624C134.658 182.32 134.898 183.544 135.378 184.296C135.858 185.032 136.634 185.4 137.706 185.4C138.394 185.4 138.978 185.2 139.458 184.8C139.938 184.384 140.21 183.688 140.274 182.712L141.81 183.144ZM136.986 174.432C136.202 174.432 135.618 174.792 135.234 175.512C134.85 176.232 134.658 177.424 134.658 179.088H139.002C139.066 178.768 139.106 178.472 139.122 178.2C139.154 177.912 139.17 177.648 139.17 177.408C139.17 176.384 138.97 175.632 138.57 175.152C138.17 174.672 137.642 174.432 136.986 174.432Z" fill="white"/>
<path d="M149.161 181.464L147.505 181.08C146.433 180.824 145.633 180.368 145.105 179.712C144.593 179.04 144.337 178.248 144.337 177.336C144.337 176.664 144.481 176.048 144.769 175.488C145.073 174.912 145.545 174.456 146.185 174.12C146.825 173.768 147.657 173.592 148.681 173.592C149.785 173.592 150.681 173.768 151.369 174.12C152.057 174.472 152.545 174.936 152.833 175.512C153.121 176.088 153.209 176.704 153.097 177.36L150.457 177.84C150.681 176.752 150.617 175.912 150.265 175.32C149.929 174.728 149.361 174.432 148.561 174.432C148.001 174.432 147.537 174.6 147.169 174.936C146.801 175.256 146.617 175.72 146.617 176.328C146.617 176.888 146.777 177.384 147.097 177.816C147.417 178.232 147.889 178.512 148.513 178.656L150.169 179.04C151.353 179.312 152.209 179.744 152.737 180.336C153.265 180.912 153.529 181.632 153.529 182.496C153.529 183.568 153.129 184.464 152.329 185.184C151.545 185.888 150.369 186.24 148.801 186.24C148.257 186.24 147.657 186.16 147.001 186C146.361 185.824 145.769 185.512 145.225 185.064C144.697 184.616 144.313 183.976 144.073 183.144L145.633 182.52C145.745 183.576 146.105 184.32 146.713 184.752C147.337 185.184 148.033 185.4 148.801 185.4C149.521 185.4 150.105 185.24 150.553 184.92C151.017 184.584 151.249 184.104 151.249 183.48C151.249 183.048 151.097 182.656 150.793 182.304C150.505 181.936 149.961 181.656 149.161 181.464Z" fill="white"/>
<path d="M160.692 181.464L159.036 181.08C157.964 180.824 157.164 180.368 156.636 179.712C156.124 179.04 155.868 178.248 155.868 177.336C155.868 176.664 156.012 176.048 156.3 175.488C156.604 174.912 157.076 174.456 157.716 174.12C158.356 173.768 159.188 173.592 160.212 173.592C161.316 173.592 162.212 173.768 162.9 174.12C163.588 174.472 164.076 174.936 164.364 175.512C164.652 176.088 164.74 176.704 164.628 177.36L161.988 177.84C162.212 176.752 162.148 175.912 161.796 175.32C161.46 174.728 160.892 174.432 160.092 174.432C159.532 174.432 159.068 174.6 158.7 174.936C158.332 175.256 158.148 175.72 158.148 176.328C158.148 176.888 158.308 177.384 158.628 177.816C158.948 178.232 159.42 178.512 160.044 178.656L161.7 179.04C162.884 179.312 163.74 179.744 164.268 180.336C164.796 180.912 165.06 181.632 165.06 182.496C165.06 183.568 164.66 184.464 163.86 185.184C163.076 185.888 161.9 186.24 160.332 186.24C159.788 186.24 159.188 186.16 158.532 186C157.892 185.824 157.3 185.512 156.756 185.064C156.228 184.616 155.844 183.976 155.604 183.144L157.164 182.52C157.276 183.576 157.636 184.32 158.244 184.752C158.868 185.184 159.564 185.4 160.332 185.4C161.052 185.4 161.636 185.24 162.084 184.92C162.548 184.584 162.78 184.104 162.78 183.48C162.78 183.048 162.628 182.656 162.324 182.304C162.036 181.936 161.492 181.656 160.692 181.464Z" fill="white"/>
<path d="M178.439 179.664V180.144C178.439 181.984 177.959 183.464 176.999 184.584C176.055 185.688 174.703 186.24 172.943 186.24C171.183 186.24 169.823 185.688 168.863 184.584C167.919 183.464 167.447 181.984 167.447 180.144V179.664C167.447 177.824 167.919 176.352 168.863 175.248C169.823 174.144 171.183 173.592 172.943 173.592C174.703 173.592 176.055 174.144 176.999 175.248C177.959 176.352 178.439 177.824 178.439 179.664ZM175.487 179.184C175.487 177.472 175.271 176.256 174.839 175.536C174.407 174.8 173.775 174.432 172.943 174.432C172.127 174.432 171.495 174.8 171.047 175.536C170.615 176.256 170.399 177.472 170.399 179.184V180.624C170.399 182.32 170.615 183.544 171.047 184.296C171.495 185.032 172.127 185.4 172.943 185.4C173.775 185.4 174.407 185.032 174.839 184.296C175.271 183.544 175.487 182.32 175.487 180.624V179.184Z" fill="white"/>
</svg>
